<svg width="42" height="42" viewBox="0 0 42 42" fill="none" xmlns="http://www.w3.org/2000/svg">
<rect width="42" height="42" rx="10" fill="#F6943B"/>
<path fill-rule="evenodd" clip-rule="evenodd" d="M18.8191 23.6811C17.454 22.3161 16.425 20.7877 15.7413 19.2371C15.5978 18.9093 15.6818 18.5254 15.935 18.2722L16.8905 17.3167C17.6734 16.5338 17.6734 15.4266 16.9897 14.7429L15.6211 13.3743C14.7099 12.4631 13.2328 12.4631 12.3216 13.3743L11.5609 14.1339C10.6964 14.9984 10.3359 16.2456 10.5692 17.4824C11.1456 20.531 12.9167 23.869 15.774 26.7263C18.6313 29.5836 21.9693 31.3547 25.0179 31.931C26.2546 32.1644 27.5019 31.8039 28.3664 30.9393L29.1259 30.1798C30.0371 29.2686 30.0371 27.7915 29.1259 26.8803L27.7574 25.5117C27.0737 24.828 25.9653 24.828 25.2828 25.5117L24.2292 26.5665C23.976 26.8196 23.5922 26.9048 23.2643 26.7601C21.7137 26.0753 20.1842 25.045 18.8191 23.6811Z" stroke="white" stroke-width="2" stroke-linecap="round" stroke-linejoin="round"/>
<path d="M24.4999 11V18.0003H31.5002" stroke="white" stroke-width="2" stroke-linecap="round" stroke-linejoin="round"/>
<path d="M31.5002 11L24.4999 18.0003" stroke="white" stroke-width="2" stroke-linecap="round" stroke-linejoin="round"/>
</svg>
