<svg width="67" height="79" viewBox="0 0 67 79" fill="none" xmlns="http://www.w3.org/2000/svg">
<path fill-rule="evenodd" clip-rule="evenodd" d="M56.0926 10.3875C49.7562 9.66039 43.4198 6.33638 40.5113 4.155C37.3951 1.76588 35.3176 0 33.2401 0C31.1626 0 29.1889 1.76588 25.9688 4.155C23.0603 6.33638 16.7239 9.66039 10.3875 10.3875C4.05113 11.1146 0 10.2836 0 14.5425C0 18.8014 0.103876 44.6663 10.3875 59.2088C20.6712 73.7513 30.4354 78.9451 33.2401 78.9451C36.0447 78.9451 45.809 73.7513 56.0926 59.2088C66.3762 44.6663 66.4801 18.8014 66.4801 14.5425C66.4801 10.2836 62.429 11.1146 56.0926 10.3875Z" fill="#4B28AF"/>
<path fill-rule="evenodd" clip-rule="evenodd" d="M55.6769 10.9097C49.4444 10.1826 43.2119 6.96249 40.4073 4.78111C37.3949 2.49586 35.3174 0.72998 33.2399 0.72998C31.1624 0.72998 29.1887 2.39198 26.0725 4.78111C23.4756 6.75474 18.0741 9.66324 12.4648 10.5981C12.9842 35.4243 30.0197 56.1993 52.9762 62.4318C53.911 61.2892 54.742 60.1465 55.6769 58.7962C65.7528 44.4614 65.8567 19.012 65.8567 14.857C65.9606 10.8059 61.9094 11.533 55.6769 10.9097Z" fill="#6A3DBD"/>
<path fill-rule="evenodd" clip-rule="evenodd" d="M55.6782 10.9097C49.4457 10.1826 43.2132 6.96249 40.3046 4.78111C37.2923 2.49586 35.2148 0.72998 33.1373 0.72998C31.0598 0.72998 29.0861 2.39198 25.9699 4.78111C24.7234 5.71599 22.8536 6.85861 20.5684 7.89736C26.3854 20.9856 39.3698 30.1266 54.5355 30.1266C58.2751 30.1266 61.8068 29.6073 65.2347 28.5685C65.9618 21.9205 65.9618 16.7267 65.9618 14.9609C65.9618 10.8059 61.9107 11.533 55.6782 10.9097Z" fill="#854FC9"/>
<path fill-rule="evenodd" clip-rule="evenodd" d="M53.9108 41.343C53.8069 40.6158 52.4565 40.512 52.041 39.9926C51.5217 39.4732 51.8333 38.85 51.8333 38.85C52.1449 39.0577 53.1837 39.1616 54.1185 39.1616C55.0534 39.1616 55.4689 39.0577 55.4689 39.0577C55.4689 39.0577 54.6379 37.9151 53.9108 36.9802C53.0798 36.0453 51.5217 33.9678 51.21 33.4485C50.8984 33.033 51.1062 31.6826 49.4441 29.6051C47.7821 27.5276 44.6659 25.6578 44.6659 25.6578C47.055 26.0733 48.4054 26.9043 48.6131 27.0082C48.8209 27.1121 49.1325 24.6191 46.9511 21.7106C44.7698 18.6982 40.8225 17.9711 40.3031 17.9711C39.7838 17.8672 39.7838 17.9711 40.1993 18.3866C40.6148 18.8021 41.238 19.4253 41.238 19.4253C39.3683 18.8021 35.7326 17.8672 31.9931 18.0749C28.2536 18.2827 24.0986 20.3602 23.2676 20.8796C22.4366 21.3989 22.6444 21.3989 23.5792 21.2951C24.5141 21.1912 25.8645 21.1912 25.8645 21.1912C25.8645 21.1912 22.125 22.6454 20.0475 24.8268C17.97 27.0082 16.1002 29.0857 15.2692 31.4748C14.4382 33.864 14.2305 37.4996 14.2305 38.3306C14.2305 39.1616 14.3343 38.85 14.646 38.2267C14.8537 37.6035 15.6847 35.2143 17.8661 32.6175C19.9436 30.0206 22.5405 28.6702 22.5405 28.6702C22.5405 28.6702 19.7359 31.7865 18.4894 34.2795C17.2428 36.7725 16.5157 40.2003 16.5157 42.6933C16.5157 45.2902 17.3467 49.0297 18.801 51.7305C20.2552 54.4312 22.2289 56.1971 22.8521 56.7165C23.4754 57.3397 23.5792 57.132 23.3715 56.8204C23.1637 56.6126 22.4366 55.6777 21.8134 53.6002C21.1901 51.5227 21.7095 49.1336 21.7095 49.1336C21.7095 49.1336 21.9172 50.6917 23.0599 52.4576C24.0986 54.2235 25.8645 55.5739 25.9684 55.5739C26.0722 55.5739 24.7219 52.3537 24.7219 49.1336C24.7219 45.9135 25.2412 44.2515 25.2412 44.2515C25.7606 46.8483 26.7994 48.6142 27.7342 50.1723C28.6691 51.7305 31.266 53.2886 32.8241 55.5739C34.3822 57.8591 33.4474 60.5599 33.4474 60.5599C38.2256 59.5211 39.576 56.9242 39.576 56.9242C39.576 56.9242 39.6799 57.5475 39.4721 58.4824C39.3683 59.3134 38.9528 60.3521 38.9528 60.3521C40.0954 59.7289 42.6923 57.3397 42.069 54.5351C41.4458 51.7305 37.914 49.9646 37.914 49.9646C37.914 49.9646 41.4458 51.2111 43.2116 53.2886C44.9775 55.3661 44.3543 58.0669 44.3543 58.0669C44.3543 58.0669 46.3279 55.7816 45.9124 52.977C45.4969 50.1723 41.5496 48.6142 39.1605 47.7832C38.2256 47.3677 37.3946 46.9522 36.7714 46.329C38.745 47.3677 41.4458 47.5755 44.1465 48.822C48.0938 50.6917 47.6783 53.1847 47.6783 53.1847C47.6783 53.1847 49.2364 52.4576 50.4829 51.1072C50.8984 50.6917 51.4178 50.0685 51.7294 49.3413C52.5604 47.5755 51.8333 46.0173 51.8333 45.8096C51.7294 45.6018 51.9372 45.3941 52.1449 44.9786C52.3527 44.5631 52.4565 43.836 52.3527 43.836C52.2488 43.836 50.7945 44.4592 49.548 44.9786C48.3015 45.3941 47.1589 45.6018 46.3279 45.1863C45.7046 44.667 45.7046 43.4205 45.7046 43.4205C46.4318 43.836 46.8473 43.9398 49.8597 43.5243C52.872 43.1088 53.703 42.0701 53.703 42.0701C53.703 42.0701 53.4953 42.6933 53.5992 42.9011C53.5992 43.005 54.1185 42.4856 54.4302 42.0701C54.8457 41.6546 54.9495 41.0313 54.8457 41.0313C54.7418 41.0313 53.9108 41.343 53.9108 41.343ZM36.252 27.3198C36.252 27.3198 37.6024 27.4237 38.0179 27.5276C38.0179 27.5276 35.6288 28.0469 34.2784 29.7089C34.2784 29.7089 35.9404 29.2934 36.7714 29.5012C36.7714 29.5012 36.0443 31.8903 31.7854 32.4097C31.7854 32.4097 32.6164 31.3709 32.8241 29.9167C33.0319 28.5663 32.7203 26.1772 34.1745 24.9307C35.6288 23.6842 37.2908 23.8919 38.8489 25.0346C40.407 26.2811 40.6148 26.9043 40.6148 26.9043C40.6148 26.9043 37.7063 26.4888 36.252 27.3198ZM46.9511 34.4872C46.5356 34.0717 46.3279 33.6562 46.1201 33.6562C45.9124 33.6562 44.4581 33.6562 44.0426 33.3446C43.6271 33.0329 43.5233 32.5136 43.5233 32.5136L43.0039 32.4097C43.0039 32.4097 44.562 31.6826 45.7046 31.7864C46.8473 31.8903 47.055 33.3446 47.6783 34.0717C48.3015 34.9027 49.2364 35.6298 49.2364 35.6298C49.2364 35.6298 47.3666 34.9027 46.9511 34.4872Z" fill="white"/>
</svg>
