<svg width="49" height="49" viewBox="0 0 49 49" fill="none" xmlns="http://www.w3.org/2000/svg">
<path fill-rule="evenodd" clip-rule="evenodd" d="M46.9999 31.9996C48.1046 31.9996 49 32.8952 49 33.9996V43.9996C49 45.1041 48.1046 45.9996 46.9999 45.9996H42.8023L40.3881 48.414C39.612 49.1899 38.3537 49.1899 37.5776 48.414L35.1633 45.9996H1.99994C0.895377 45.9996 0 45.1041 0 43.9996V33.9996C0 32.8952 0.895377 31.9996 1.99994 31.9996H21.1633L3.16334 13.9998H1.99994C0.895377 13.9998 0 13.1044 0 11.9995V1.99984C0 0.894987 0.895377 -0.000488281 1.99994 -0.000488281H46.9999C48.1046 -0.000488281 49 0.894987 49 1.99984V11.9995C49 13.1044 48.1046 13.9998 46.9999 13.9998H22.8366L40.8366 31.9996H46.9999ZM43.9999 33.9996V35.163L46.9999 38.163V33.9996H43.9999ZM46.9999 43.9996V41.8018L44.8023 43.9996H46.9999ZM23 36.9995C22.4477 36.9995 21.9999 36.5517 21.9999 35.9995V33.9996H20V37.9995C20 38.5517 19.5522 38.9998 18.9999 38.9998C18.4477 38.9998 17.9999 38.5517 17.9999 37.9995V33.9996H16V35.9995C16 36.5517 15.5522 36.9995 14.9999 36.9995C14.4477 36.9995 13.9999 36.5517 13.9999 35.9995V33.9996H1.99994V43.9996H33.1633L27.7661 38.6024C27.587 38.8374 27.3199 38.9998 26.9999 38.9998C26.4477 38.9998 25.9999 38.5517 25.9999 37.9995V36.8364L24 34.8365V35.9995C24 36.5517 23.5522 36.9995 23 36.9995ZM46.9999 1.99984H43.9999V5.99971C43.9999 6.55189 43.5522 6.9997 42.9999 6.9997C42.4477 6.9997 42 6.55189 42 5.99971V1.99984H39.9999V3.99977C39.9999 4.55195 39.5522 4.99977 38.9999 4.99977C38.4477 4.99977 38 4.55195 38 3.99977V1.99984H36V5.99971C36 6.55189 35.5522 6.9997 34.9999 6.9997C34.4476 6.9997 33.9999 6.55189 33.9999 5.99971V1.99984H31.9999V3.99977C31.9999 4.55195 31.5522 4.99977 30.9999 4.99977C30.4477 4.99977 29.9999 4.55195 29.9999 3.99977V1.99984H28V5.99971C28 6.55189 27.5522 6.9997 26.9999 6.9997C26.4477 6.9997 25.9999 6.55189 25.9999 5.99971V1.99984H24V3.99977C24 4.55195 23.5522 4.99977 23 4.99977C22.4477 4.99977 21.9999 4.55195 21.9999 3.99977V1.99984H20V5.99971C20 6.55189 19.5522 6.9997 18.9999 6.9997C18.4477 6.9997 17.9999 6.55189 17.9999 5.99971V1.99984H16V3.99977C16 4.55195 15.5522 4.99977 14.9999 4.99977C14.4477 4.99977 13.9999 4.55195 13.9999 3.99977V1.99984H1.99994V11.9995H46.9999V1.99984ZM5.97379 13.9998L9.47293 17.499L12.2834 14.6883C12.6714 14.3 13.3006 14.3 13.6886 14.6883C14.0767 15.0763 14.0767 15.7057 13.6886 16.0936L10.8781 18.904L12.2834 20.3093L13.6886 18.904C14.0767 18.516 14.7058 18.516 15.0939 18.904C15.4819 19.2919 15.4819 19.9213 15.0939 20.3093L13.6886 21.7142L15.0939 23.1199L17.9044 20.3093C18.2924 19.9213 18.9215 19.9213 19.3096 20.3093C19.6977 20.6972 19.6977 21.3263 19.3096 21.7142L16.4991 24.5249L17.9044 25.9302L19.3096 24.5249C19.6977 24.1369 20.3268 24.1369 20.7148 24.5249C21.1029 24.9128 21.1029 25.5422 20.7148 25.9302L19.3096 27.3352L20.7148 28.7405L23.5253 25.9302C23.9133 25.5422 24.5424 25.5422 24.9305 25.9302C25.3185 26.3182 25.3185 26.9472 24.9305 27.3352L22.1201 30.1462L23.5253 31.5512L24.9305 30.1462C25.3185 29.7578 25.9477 29.7578 26.3357 30.1462C26.7238 30.5342 26.7238 31.1628 26.3357 31.5512L24.9305 32.9565L26.3357 34.3614L29.1462 31.5512C29.5342 31.1628 30.1634 31.1628 30.5514 31.5512C30.9395 31.9391 30.9395 32.5685 30.5514 32.9565L27.741 35.7668L29.1462 37.1717L30.5514 35.7668C30.9395 35.3788 31.5686 35.3788 31.9567 35.7668C32.3447 36.1547 32.3447 36.7838 31.9567 37.1717L30.5514 38.5775L38.9828 47.0087L46.0089 39.9824L20.0261 13.9998H5.97379ZM41.0907 42.0902C39.9265 43.2544 38.0391 43.2544 36.875 42.0902C35.7108 40.926 35.7108 39.0388 36.875 37.8746C38.0391 36.7104 39.9265 36.7104 41.0907 37.8746C42.2548 39.0388 42.2548 40.926 41.0907 42.0902ZM39.6854 39.2799C39.2974 38.8916 38.6683 38.8916 38.2802 39.2799C37.8921 39.6679 37.8921 40.2973 38.2802 40.6852C38.6683 41.0732 39.2974 41.0732 39.6854 40.6852C40.0735 40.2973 40.0735 39.6679 39.6854 39.2799ZM6.99994 3.99977C8.65678 3.99977 9.99992 5.34267 9.99992 6.9997C9.99992 8.65629 8.65678 9.99958 6.99994 9.99958C5.34316 9.99958 3.99997 8.65629 3.99997 6.9997C3.99997 5.34267 5.34316 3.99977 6.99994 3.99977ZM6.99994 7.99964C7.55222 7.99964 7.99999 7.55188 7.99999 6.9997C7.99999 6.44708 7.55222 5.99971 6.99994 5.99971C6.44767 5.99971 5.99995 6.44708 5.99995 6.9997C5.99995 7.55188 6.44767 7.99964 6.99994 7.99964ZM6.99994 41.9997C5.34316 41.9997 3.99997 40.6565 3.99997 38.9998C3.99997 37.3424 5.34316 35.9995 6.99994 35.9995C8.65678 35.9995 9.99992 37.3424 9.99992 38.9998C9.99992 40.6565 8.65678 41.9997 6.99994 41.9997ZM6.99994 37.9995C6.44767 37.9995 5.99995 38.4473 5.99995 38.9998C5.99995 39.5517 6.44767 39.9998 6.99994 39.9998C7.55222 39.9998 7.99999 39.5517 7.99999 38.9998C7.99999 38.4473 7.55222 37.9995 6.99994 37.9995Z" fill="white"/>
<path fill-rule="evenodd" clip-rule="evenodd" d="M46.9999 31.9996C48.1046 31.9996 49 32.8952 49 33.9996V43.9996C49 45.1041 48.1046 45.9996 46.9999 45.9996H42.8023L40.3881 48.414C39.612 49.1899 38.3537 49.1899 37.5776 48.414L35.1633 45.9996H1.99994C0.895377 45.9996 0 45.1041 0 43.9996V33.9996C0 32.8952 0.895377 31.9996 1.99994 31.9996H21.1633L3.16334 13.9998H1.99994C0.895377 13.9998 0 13.1044 0 11.9995V1.99984C0 0.894987 0.895377 -0.000488281 1.99994 -0.000488281H46.9999C48.1046 -0.000488281 49 0.894987 49 1.99984V11.9995C49 13.1044 48.1046 13.9998 46.9999 13.9998H22.8366L40.8366 31.9996H46.9999ZM43.9999 33.9996V35.163L46.9999 38.163V33.9996H43.9999ZM46.9999 43.9996V41.8018L44.8023 43.9996H46.9999ZM23 36.9995C22.4477 36.9995 21.9999 36.5517 21.9999 35.9995V33.9996H20V37.9995C20 38.5517 19.5522 38.9998 18.9999 38.9998C18.4477 38.9998 17.9999 38.5517 17.9999 37.9995V33.9996H16V35.9995C16 36.5517 15.5522 36.9995 14.9999 36.9995C14.4477 36.9995 13.9999 36.5517 13.9999 35.9995V33.9996H1.99994V43.9996H33.1633L27.7661 38.6024C27.587 38.8374 27.3199 38.9998 26.9999 38.9998C26.4477 38.9998 25.9999 38.5517 25.9999 37.9995V36.8364L24 34.8365V35.9995C24 36.5517 23.5522 36.9995 23 36.9995ZM46.9999 1.99984H43.9999V5.99971C43.9999 6.55189 43.5522 6.9997 42.9999 6.9997C42.4477 6.9997 42 6.55189 42 5.99971V1.99984H39.9999V3.99977C39.9999 4.55195 39.5522 4.99977 38.9999 4.99977C38.4477 4.99977 38 4.55195 38 3.99977V1.99984H36V5.99971C36 6.55189 35.5522 6.9997 34.9999 6.9997C34.4476 6.9997 33.9999 6.55189 33.9999 5.99971V1.99984H31.9999V3.99977C31.9999 4.55195 31.5522 4.99977 30.9999 4.99977C30.4477 4.99977 29.9999 4.55195 29.9999 3.99977V1.99984H28V5.99971C28 6.55189 27.5522 6.9997 26.9999 6.9997C26.4477 6.9997 25.9999 6.55189 25.9999 5.99971V1.99984H24V3.99977C24 4.55195 23.5522 4.99977 23 4.99977C22.4477 4.99977 21.9999 4.55195 21.9999 3.99977V1.99984H20V5.99971C20 6.55189 19.5522 6.9997 18.9999 6.9997C18.4477 6.9997 17.9999 6.55189 17.9999 5.99971V1.99984H16V3.99977C16 4.55195 15.5522 4.99977 14.9999 4.99977C14.4477 4.99977 13.9999 4.55195 13.9999 3.99977V1.99984H1.99994V11.9995H46.9999V1.99984ZM5.97379 13.9998L9.47293 17.499L12.2834 14.6883C12.6714 14.3 13.3006 14.3 13.6886 14.6883C14.0767 15.0763 14.0767 15.7057 13.6886 16.0936L10.8781 18.904L12.2834 20.3093L13.6886 18.904C14.0767 18.516 14.7058 18.516 15.0939 18.904C15.4819 19.2919 15.4819 19.9213 15.0939 20.3093L13.6886 21.7142L15.0939 23.1199L17.9044 20.3093C18.2924 19.9213 18.9215 19.9213 19.3096 20.3093C19.6977 20.6972 19.6977 21.3263 19.3096 21.7142L16.4991 24.5249L17.9044 25.9302L19.3096 24.5249C19.6977 24.1369 20.3268 24.1369 20.7148 24.5249C21.1029 24.9128 21.1029 25.5422 20.7148 25.9302L19.3096 27.3352L20.7148 28.7405L23.5253 25.9302C23.9133 25.5422 24.5424 25.5422 24.9305 25.9302C25.3185 26.3182 25.3185 26.9472 24.9305 27.3352L22.1201 30.1462L23.5253 31.5512L24.9305 30.1462C25.3185 29.7578 25.9477 29.7578 26.3357 30.1462C26.7238 30.5342 26.7238 31.1628 26.3357 31.5512L24.9305 32.9565L26.3357 34.3614L29.1462 31.5512C29.5342 31.1628 30.1634 31.1628 30.5514 31.5512C30.9395 31.9391 30.9395 32.5685 30.5514 32.9565L27.741 35.7668L29.1462 37.1717L30.5514 35.7668C30.9395 35.3788 31.5686 35.3788 31.9567 35.7668C32.3447 36.1547 32.3447 36.7838 31.9567 37.1717L30.5514 38.5775L38.9828 47.0087L46.0089 39.9824L20.0261 13.9998H5.97379ZM41.0907 42.0902C39.9265 43.2544 38.0391 43.2544 36.875 42.0902C35.7108 40.926 35.7108 39.0388 36.875 37.8746C38.0391 36.7104 39.9265 36.7104 41.0907 37.8746C42.2548 39.0388 42.2548 40.926 41.0907 42.0902ZM39.6854 39.2799C39.2974 38.8916 38.6683 38.8916 38.2802 39.2799C37.8921 39.6679 37.8921 40.2973 38.2802 40.6852C38.6683 41.0732 39.2974 41.0732 39.6854 40.6852C40.0735 40.2973 40.0735 39.6679 39.6854 39.2799ZM6.99994 3.99977C8.65678 3.99977 9.99992 5.34267 9.99992 6.9997C9.99992 8.65629 8.65678 9.99958 6.99994 9.99958C5.34316 9.99958 3.99997 8.65629 3.99997 6.9997C3.99997 5.34267 5.34316 3.99977 6.99994 3.99977ZM6.99994 7.99964C7.55222 7.99964 7.99999 7.55188 7.99999 6.9997C7.99999 6.44708 7.55222 5.99971 6.99994 5.99971C6.44767 5.99971 5.99995 6.44708 5.99995 6.9997C5.99995 7.55188 6.44767 7.99964 6.99994 7.99964ZM6.99994 41.9997C5.34316 41.9997 3.99997 40.6565 3.99997 38.9998C3.99997 37.3424 5.34316 35.9995 6.99994 35.9995C8.65678 35.9995 9.99992 37.3424 9.99992 38.9998C9.99992 40.6565 8.65678 41.9997 6.99994 41.9997ZM6.99994 37.9995C6.44767 37.9995 5.99995 38.4473 5.99995 38.9998C5.99995 39.5517 6.44767 39.9998 6.99994 39.9998C7.55222 39.9998 7.99999 39.5517 7.99999 38.9998C7.99999 38.4473 7.55222 37.9995 6.99994 37.9995Z" fill="#8859CF"/>
</svg>
