<svg width="100" height="100" viewBox="0 0 100 100" fill="none" xmlns="http://www.w3.org/2000/svg">
<path fill-rule="evenodd" clip-rule="evenodd" d="M51.8905 53.02C51.7505 52.99 51.6005 52.98 51.4605 53.01C50.0105 52.84 48.9205 51.62 48.9105 50.16C48.9105 49.46 48.3405 48.9 47.6405 48.9C46.9405 48.9 46.3705 49.47 46.3705 50.16C46.3705 52.59 48.0005 54.72 50.3505 55.36V56.62C50.3505 57.32 50.9205 57.88 51.6205 57.88C52.3205 57.88 52.8905 57.31 52.8905 56.62V55.43C55.6005 54.86 57.4405 52.34 57.1605 49.6C56.8705 46.85 54.5505 44.76 51.7805 44.76C50.1905 44.76 48.9105 43.48 48.9105 41.89C48.9105 40.3 50.2005 39.02 51.7805 39.02C53.3605 39.02 54.6505 40.3 54.6505 41.89C54.6505 42.59 55.2205 43.15 55.9205 43.15C56.6205 43.15 57.1905 42.58 57.1905 41.89C57.1905 39.34 55.3905 37.14 52.8905 36.61V35.46C52.8905 34.76 52.3205 34.2 51.6205 34.2C50.9205 34.2 50.3505 34.77 50.3505 35.46V36.69C47.7405 37.4 46.0605 39.93 46.4205 42.61C46.7805 45.29 49.0705 47.29 51.7805 47.29C53.3505 47.29 54.6205 48.54 54.6505 50.1C54.6905 51.67 53.4605 52.97 51.8905 53.02ZM51.7905 64.44C61.9305 64.44 70.1505 56.24 70.1505 46.13C70.1505 36.02 61.9305 27.82 51.7905 27.82C41.6605 27.83 33.4405 36.02 33.4305 46.13C33.4305 56.24 41.6505 64.44 51.7905 64.44ZM51.7905 30.34C60.5305 30.34 67.6205 37.41 67.6205 46.13C67.6205 54.85 60.5305 61.92 51.7905 61.92C43.0505 61.92 35.9605 54.85 35.9605 46.13C35.9705 37.41 43.0505 30.35 51.7905 30.34ZM84.8305 70.12C83.1505 67.15 79.4405 66.02 76.3805 67.55L66.4605 72.22C65.0905 69.68 62.4605 68.06 59.5705 67.98L50.4105 67.73C48.9605 67.69 47.5405 67.32 46.2505 66.66L45.3205 66.18C40.5505 63.7 34.8605 63.71 30.1005 66.2L30.1605 64.09C30.1805 63.39 29.6305 62.81 28.9305 62.79L18.8905 62.51C18.1905 62.49 17.6105 63.04 17.5905 63.74L17.0005 85.73C16.9805 86.43 17.5305 87.01 18.2305 87.03L28.2705 87.31H28.3005C28.9905 87.31 29.5505 86.77 29.5705 86.08L29.6005 85.03L32.2105 83.64C33.2305 83.09 34.4305 82.96 35.5505 83.28L51.1205 87.64C51.1505 87.65 51.1705 87.65 51.2005 87.66C52.3305 87.89 53.4705 88.01 54.6205 88.01C57.0605 88.01 59.4605 87.49 61.6805 86.47C61.7305 86.45 61.7905 86.42 61.8405 86.38L84.4205 71.8C84.9805 71.44 85.1605 70.7 84.8305 70.12ZM27.0705 84.74L19.5605 84.53L20.1005 65.08L27.6105 65.29L27.0705 84.74ZM60.5405 84.21C57.7905 85.45 54.7205 85.79 51.7605 85.19L36.2305 80.84C34.4805 80.35 32.6105 80.55 31.0105 81.41L29.6805 82.12L30.0405 69.19C34.2605 66.39 39.6805 66.1 44.1805 68.44L45.1105 68.92C46.7405 69.76 48.5305 70.22 50.3705 70.27L59.5305 70.52C62.1005 70.59 64.2905 72.42 64.8105 74.93L51.1705 74.55C50.4705 74.53 49.8905 75.08 49.8705 75.78C49.8505 76.48 50.4005 77.06 51.1005 77.08L66.1505 77.49H66.1905C66.8805 77.49 67.4405 76.94 67.4505 76.26C67.4705 75.71 67.4205 75.16 67.3305 74.62L77.5005 69.83C77.5105 69.83 77.5205 69.82 77.5305 69.82C78.9705 69.09 80.7205 69.34 81.9005 70.43L60.5405 84.21ZM51.7905 25.52C52.4905 25.52 53.0605 24.95 53.0605 24.26V12.26C53.0605 11.56 52.4905 11 51.7905 11C51.0905 11 50.5205 11.57 50.5205 12.26V24.26C50.5205 24.96 51.0905 25.52 51.7905 25.52ZM61.2805 25.52C61.9805 25.52 62.5505 24.95 62.5505 24.26V18.58C62.5505 17.88 61.9805 17.32 61.2805 17.32C60.5805 17.32 60.0105 17.89 60.0105 18.58V24.26C60.0205 24.96 60.5905 25.52 61.2805 25.52ZM42.2905 25.52C42.9905 25.52 43.5605 24.95 43.5605 24.26V18.58C43.5605 17.88 42.9905 17.32 42.2905 17.32C41.5905 17.32 41.0205 17.89 41.0205 18.58V24.26C41.0305 24.96 41.5905 25.52 42.2905 25.52Z" fill="white"/>
</svg>
