<svg width="100" height="100" viewBox="0 0 100 100" fill="none" xmlns="http://www.w3.org/2000/svg">
<path fill-rule="evenodd" clip-rule="evenodd" d="M83.05 55.1669H81.99V45.6969C81.99 44.1969 81.24 42.8669 80.1 42.0669V40.7769C80.1 38.9069 78.57 37.3869 76.7 37.3869H75.91L78.92 32.9769C79.93 31.4969 79.55 29.4769 78.06 28.4669L57.6 14.5669C56.88 14.0769 56.02 13.8969 55.16 14.0569C54.31 14.2169 53.57 14.6969 53.08 15.4169L35.43 41.2369H30.52L31.71 29.2769C31.72 29.1469 31.81 29.0269 31.93 28.9769C33.46 28.4069 34.78 27.3269 35.66 25.9569C35.73 25.8469 35.86 25.7869 35.99 25.7969L43.7 26.5569C44.25 26.6069 44.74 26.2069 44.8 25.6569C44.85 25.1069 44.45 24.6169 43.9 24.5569L36.19 23.7969C35.3 23.7069 34.44 24.1169 33.96 24.8669C33.32 25.8769 32.34 26.6669 31.22 27.0869C30.37 27.4069 29.79 28.1569 29.71 29.0669L28.51 41.2269H27.23L29.1 22.3069C29.17 21.6269 29.78 21.1269 30.46 21.1969L46.03 22.7269C46.58 22.7769 47.07 22.3769 47.13 21.8269C47.18 21.2769 46.78 20.7869 46.23 20.7269L30.65 19.2169C28.86 19.0369 27.27 20.3469 27.09 22.1269L25.58 37.3769H23.01C21.13 37.3769 19.61 38.8969 19.61 40.7669V41.6469C18.07 42.3469 17 43.8969 17 45.6969V79.8369C17 82.2869 19 84.2869 21.47 84.2869H77.53C79.99 84.2869 82 82.2869 82 79.8369V70.3669H83.06C84.31 70.3669 85.32 69.3569 85.32 68.1169V57.4169C85.3 56.1769 84.29 55.1669 83.05 55.1669ZM76.69 39.3769C77.46 39.3769 78.09 39.9969 78.09 40.7669V41.2769C77.91 41.2569 77.72 41.2369 77.53 41.2369H73.27L74.54 39.3769H76.69ZM54.75 16.5369C54.94 16.2669 55.22 16.0769 55.55 16.0169C55.63 16.0069 55.71 15.9969 55.78 15.9969C56.03 15.9969 56.27 16.0669 56.48 16.2169L76.94 30.1169C77.51 30.5069 77.65 31.2769 77.27 31.8369L70.84 41.2369H69.3L72.45 36.6269C72.96 35.8769 73 34.9269 72.56 34.1469C71.97 33.1069 71.73 31.8769 71.89 30.6969C72.01 29.8169 71.62 28.9569 70.87 28.4469L60.27 21.2469C59.53 20.7469 58.58 20.6969 57.8 21.1269C56.75 21.7069 55.52 21.9269 54.33 21.7669C53.45 21.6469 52.55 22.0369 52.05 22.7769L39.4 41.2369H37.86L54.75 16.5369ZM55.19 33.5469C50.81 33.5469 47.22 36.9469 46.93 41.2369H41.84L53.7 23.8969C53.77 23.7969 53.88 23.7369 53.99 23.7369C54.01 23.7369 54.02 23.7369 54.04 23.7369C55.66 23.9669 57.33 23.6569 58.76 22.8669C58.87 22.8069 59.02 22.8169 59.13 22.8869L69.73 30.0869C69.84 30.1669 69.9 30.2969 69.89 30.4169C69.68 32.0269 70 33.6969 70.81 35.1169C70.87 35.2269 70.87 35.3769 70.79 35.4869L66.87 41.2269H63.45C63.16 36.9469 59.56 33.5469 55.19 33.5469ZM61.43 41.2369H48.94C49.23 38.0569 51.92 35.5469 55.19 35.5469C58.46 35.5469 61.15 38.0569 61.43 41.2369ZM21.61 40.7669C21.61 39.9969 22.24 39.3769 23.01 39.3769H25.38L25.2 41.2369H21.61V40.7669ZM19 45.6869C19 44.3369 20.1 43.2369 21.46 43.2369H77.52C78.87 43.2369 79.98 44.3369 79.98 45.6869V48.4669H19V45.6869ZM79.98 79.8269C79.98 81.1769 78.88 82.2769 77.52 82.2769H21.46C20.11 82.2769 19 81.1769 19 79.8269V77.0469H24.42C24.97 77.0469 25.42 76.5969 25.42 76.0469C25.42 75.4969 24.97 75.0469 24.42 75.0469H19V50.4669H79.98V55.1569H70.43C67.42 55.1569 64.81 56.9069 63.57 59.4369C63.57 59.4469 63.56 59.4569 63.56 59.4669C63.55 59.4869 63.54 59.5069 63.53 59.5369C63.38 59.8469 63.25 60.1769 63.15 60.5069C62.93 61.2169 62.81 61.9769 62.81 62.7569C62.81 66.9469 66.23 70.3569 70.43 70.3569H79.98V75.0469H30.86C30.3 75.0469 29.86 75.4969 29.86 76.0469C29.86 76.5969 30.31 77.0469 30.86 77.0469H79.98V79.8269ZM83.3 68.1069C83.3 68.2469 83.19 68.3569 83.05 68.3569H70.43C68.3 68.3569 66.45 67.1669 65.5 65.4269C65.46 65.3469 65.42 65.2669 65.38 65.1869C65.3 65.0269 65.23 64.8569 65.17 64.6869C64.95 64.0869 64.83 63.4369 64.83 62.7669C64.83 62.0969 64.95 61.4469 65.17 60.8469C65.23 60.6769 65.3 60.5069 65.38 60.3469C65.42 60.2669 65.46 60.1869 65.5 60.1069C66.45 58.3669 68.31 57.1769 70.43 57.1769H83.05C83.19 57.1769 83.3 57.2869 83.3 57.4269V68.1069ZM70.66 58.6969C68.41 58.6969 66.58 60.5169 66.58 62.7569C66.58 64.9969 68.41 66.8169 70.66 66.8169C72.91 66.8169 74.74 64.9969 74.74 62.7569C74.74 60.5169 72.91 58.6969 70.66 58.6969ZM70.66 64.8169C69.52 64.8169 68.59 63.8969 68.59 62.7569C68.59 61.6169 69.52 60.6969 70.66 60.6969C71.8 60.6969 72.73 61.6169 72.73 62.7569C72.73 63.8969 71.8 64.8169 70.66 64.8169Z" fill="white"/>
</svg>
