<svg width="100" height="100" viewBox="0 0 100 100" fill="none" xmlns="http://www.w3.org/2000/svg">
<rect x="17" y="30" width="66" height="50" rx="9" stroke="white" stroke-width="2.5"/>
<path d="M38 30V26C38 23.2386 40.2386 21 43 21H57C59.7614 21 62 23.2386 62 26V30" stroke="white" stroke-width="2.5"/>
<path d="M29 49V54.8333C29 57.1345 30.8655 59 33.1667 59H33.8333C36.1345 59 38 57.1345 38 54.8333V49" stroke="white" stroke-width="2.5"/>
<path d="M63 49V54.8333C63 57.1345 64.8655 59 67.1667 59H67.8333C70.1345 59 72 57.1345 72 54.8333V49" stroke="white" stroke-width="2.5"/>
<path d="M18 49H83" stroke="white" stroke-width="2.5"/>
</svg>
