<svg width="45" height="53" viewBox="0 0 45 53" fill="none" xmlns="http://www.w3.org/2000/svg">
<path fill-rule="evenodd" clip-rule="evenodd" d="M44.5703 31.4553L32.6664 43.3588C32.6225 43.4194 32.5984 43.489 32.544 43.5431C32.3856 43.7013 32.1974 43.8035 31.9991 43.8732C31.468 44.1018 30.8308 44.0042 30.397 43.5712C30.2784 43.4512 30.1991 43.3115 30.13 43.1688L24.426 37.4646C23.8627 36.901 23.8627 35.9885 24.426 35.4253C24.9891 34.8621 25.9022 34.8621 26.4653 35.4253L31.4751 40.435L42.5125 29.3971C43.0807 28.829 44.002 28.829 44.5703 29.3971C45.1385 29.9656 45.1385 30.8864 44.5703 31.4553ZM17.5 37.999H11.5001C10.6716 37.999 10 37.3276 10 36.4991C10 35.6706 10.6716 34.9991 11.5001 34.9991H17.5C18.3285 34.9991 19 35.6706 19 36.4991C19 37.3276 18.3285 37.999 17.5 37.999ZM28.5001 23.9994H11.5001C10.6716 23.9994 10 23.3272 10 22.4995C10 21.6706 10.6716 20.9995 11.5001 20.9995H28.5001C29.3284 20.9995 30 21.6706 30 22.4995C30 23.3272 29.3284 23.9994 28.5001 23.9994ZM28.5001 30.9993H11.5001C10.6716 30.9993 10 30.3271 10 29.4989C10 28.6704 10.6716 27.9989 11.5001 27.9989H28.5001C29.3284 27.9989 30 28.6704 30 29.4989C30 30.3271 29.3284 30.9993 28.5001 30.9993ZM38.5 27.9989C37.6716 27.9989 37 27.3275 37 26.499V9.99912H31V11.9991H10V9.99912H2.99997V49.999H37V44.4992C37 43.6703 37.6716 42.9996 38.5 42.9996C39.3285 42.9996 40.0001 43.6703 40.0001 44.4992V51.499C40.0001 52.3279 39.3285 52.999 38.5 52.999H1.49994C0.67158 52.999 0 52.3279 0 51.499V8.49916C0 7.6703 0.67158 6.99958 1.49994 6.99958H10V3.9993H14.398C15.2934 1.67425 17.674 -0.000976562 20.5 -0.000976562C23.3261 -0.000976562 25.7067 1.67425 26.6021 3.9993H31V6.99958H38.5C39.3285 6.99958 40.0001 7.6703 40.0001 8.49916V26.499C40.0001 27.3275 39.3285 27.9989 38.5 27.9989ZM28.0001 6.99958H23.7858C23.9161 6.68508 24.0001 6.35197 24.0001 5.99926C24.0001 4.34221 22.433 2.99935 20.5 2.99935C18.5671 2.99935 17 4.34221 17 5.99926C17 6.35197 17.084 6.68508 17.2143 6.99958H13V8.99916H28.0001V6.99958Z" fill="white"/>
<path fill-rule="evenodd" clip-rule="evenodd" d="M44.5703 31.4553L32.6664 43.3588C32.6225 43.4194 32.5984 43.489 32.544 43.5431C32.3856 43.7013 32.1974 43.8035 31.9991 43.8732C31.468 44.1018 30.8308 44.0042 30.397 43.5712C30.2784 43.4512 30.1991 43.3115 30.13 43.1688L24.426 37.4646C23.8627 36.901 23.8627 35.9885 24.426 35.4253C24.9891 34.8621 25.9022 34.8621 26.4653 35.4253L31.4751 40.435L42.5125 29.3971C43.0807 28.829 44.002 28.829 44.5703 29.3971C45.1385 29.9656 45.1385 30.8864 44.5703 31.4553ZM17.5 37.999H11.5001C10.6716 37.999 10 37.3276 10 36.4991C10 35.6706 10.6716 34.9991 11.5001 34.9991H17.5C18.3285 34.9991 19 35.6706 19 36.4991C19 37.3276 18.3285 37.999 17.5 37.999ZM28.5001 23.9994H11.5001C10.6716 23.9994 10 23.3272 10 22.4995C10 21.6706 10.6716 20.9995 11.5001 20.9995H28.5001C29.3284 20.9995 30 21.6706 30 22.4995C30 23.3272 29.3284 23.9994 28.5001 23.9994ZM28.5001 30.9993H11.5001C10.6716 30.9993 10 30.3271 10 29.4989C10 28.6704 10.6716 27.9989 11.5001 27.9989H28.5001C29.3284 27.9989 30 28.6704 30 29.4989C30 30.3271 29.3284 30.9993 28.5001 30.9993ZM38.5 27.9989C37.6716 27.9989 37 27.3275 37 26.499V9.99912H31V11.9991H10V9.99912H2.99997V49.999H37V44.4992C37 43.6703 37.6716 42.9996 38.5 42.9996C39.3285 42.9996 40.0001 43.6703 40.0001 44.4992V51.499C40.0001 52.3279 39.3285 52.999 38.5 52.999H1.49994C0.67158 52.999 0 52.3279 0 51.499V8.49916C0 7.6703 0.67158 6.99958 1.49994 6.99958H10V3.9993H14.398C15.2934 1.67425 17.674 -0.000976562 20.5 -0.000976562C23.3261 -0.000976562 25.7067 1.67425 26.6021 3.9993H31V6.99958H38.5C39.3285 6.99958 40.0001 7.6703 40.0001 8.49916V26.499C40.0001 27.3275 39.3285 27.9989 38.5 27.9989ZM28.0001 6.99958H23.7858C23.9161 6.68508 24.0001 6.35197 24.0001 5.99926C24.0001 4.34221 22.433 2.99935 20.5 2.99935C18.5671 2.99935 17 4.34221 17 5.99926C17 6.35197 17.084 6.68508 17.2143 6.99958H13V8.99916H28.0001V6.99958Z" fill="#8859CF"/>
</svg>
