<svg width="28" height="50" viewBox="0 0 28 50" fill="none" xmlns="http://www.w3.org/2000/svg">
<path fill-rule="evenodd" clip-rule="evenodd" d="M27.9746 20.1254C27.9766 20.2715 27.9548 20.416 27.8807 20.5481L21.9865 31.0668C21.9545 31.5228 21.621 31.8798 21.1811 31.963C21.1473 31.9725 21.1143 31.9781 21.0792 31.9838C21.0517 31.9861 21.0281 31.9997 21 31.9997H20V48.9996C20 49.5518 19.5523 49.9995 19 49.9995H9.00001C8.44774 49.9995 7.99999 49.5518 7.99999 48.9996V31.9997H7.00006C6.97192 31.9997 6.94837 31.9861 6.92079 31.9838C6.8857 31.9781 6.8528 31.9725 6.81895 31.963C6.37902 31.8798 6.04542 31.5228 6.01356 31.0668L0.11928 20.5481C0.045192 20.416 0.023352 20.2715 0.025368 20.1254C0.01974 20.0822 0 20.044 0 19.9997V3.99976C0 3.66636 0.17374 3.38551 0.42448 3.20381L3.20424 0.423862C3.3859 0.173312 3.66677 -0.000488281 4 -0.000488281H24C24.3333 -0.000488281 24.6141 0.173312 24.7958 0.423862L27.5756 3.20381C27.8262 3.38551 28 3.66636 28 3.99976V19.9997C28 20.044 27.9803 20.0822 27.9746 20.1254ZM10 47.9996H18V31.9997H10V47.9996ZM26 4.37111L23.6286 1.99986H4.37133L2.00004 4.37111V19.8135L7.70795 29.9998H20.292L26 19.8135V4.37111ZM7.99999 22.9996C6.34315 22.9996 5.00002 21.6564 5.00002 19.9997V7.99971C5.00002 6.34266 6.34315 4.99976 7.99999 4.99976H20C21.6569 4.99976 23 6.34266 23 7.99971V19.9997C23 21.6564 21.6569 22.9996 20 22.9996H7.99999ZM21 19.9997V7.99971C21 7.44706 20.5523 6.99971 20 6.99971H7.99999C7.44772 6.99971 7.00006 7.44706 7.00006 7.99971V19.9997C7.00006 20.5519 7.44772 20.9997 7.99999 20.9997H20C20.5523 20.9997 21 20.5519 21 19.9997ZM19 14.9998H18C17.4478 14.9998 17 14.5517 17 13.9999C17 13.4473 17.4478 12.9995 18 12.9995H19C19.5523 12.9995 20 13.4473 20 13.9999C20 14.5517 19.5523 14.9998 19 14.9998ZM18.2426 11.1711L17.5356 11.8781C17.145 12.2687 16.5118 12.2687 16.1214 11.8781C15.7308 11.4879 15.7308 10.8547 16.1214 10.4644L16.8284 9.75701C17.219 9.36641 17.8521 9.36641 18.2426 9.75701C18.6332 10.1476 18.6332 10.7805 18.2426 11.1711ZM14 15.9998C12.8955 15.9998 12 15.1043 12 13.9999C12 12.8951 12.8955 11.9996 14 11.9996C15.1046 11.9996 16 12.8951 16 13.9999C16 15.1043 15.1046 15.9998 14 15.9998ZM14 10.9996C13.4478 10.9996 13 10.5519 13 9.99966V8.99966C13 8.44706 13.4478 7.99971 14 7.99971C14.5523 7.99971 15 8.44706 15 8.99966V9.99966C15 10.5519 14.5523 10.9996 14 10.9996ZM11.8787 11.8781C11.4881 12.2687 10.855 12.2687 10.4645 11.8781L9.75741 11.1711C9.36687 10.7805 9.36687 10.1476 9.75741 9.75701C10.1478 9.36641 10.7811 9.36641 11.1716 9.75701L11.8787 10.4644C12.2692 10.8547 12.2692 11.4879 11.8787 11.8781ZM11.0001 13.9999C11.0001 14.5517 10.5523 14.9998 10 14.9998H9.00001C8.44774 14.9998 7.99999 14.5517 7.99999 13.9999C7.99999 13.4473 8.44774 12.9995 9.00001 12.9995H10C10.5523 12.9995 11.0001 13.4473 11.0001 13.9999ZM9.75741 16.828L10.4645 16.121C10.855 15.7304 11.4881 15.7304 11.8787 16.121C12.2692 16.5116 12.2692 17.1444 11.8787 17.5354L11.1716 18.242C10.7811 18.6326 10.1478 18.6326 9.75741 18.242C9.36687 17.8518 9.36687 17.2186 9.75741 16.828ZM14 16.9998C14.5523 16.9998 15 17.4472 15 17.9998V18.9998C15 19.552 14.5523 19.9997 14 19.9997C13.4478 19.9997 13 19.552 13 18.9998V17.9998C13 17.4472 13.4478 16.9998 14 16.9998ZM16.1214 16.121C16.5118 15.7304 17.145 15.7304 17.5356 16.121L18.2426 16.828C18.6332 17.2186 18.6332 17.8518 18.2426 18.242C17.8521 18.6326 17.219 18.6326 16.8284 18.242L16.1214 17.5354C15.7308 17.1444 15.7308 16.5116 16.1214 16.121ZM14 23.9996C15.3808 23.9996 16.5 25.1192 16.5 26.4999C16.5 27.8802 15.3808 28.9998 14 28.9998C12.6193 28.9998 11.5 27.8802 11.5 26.4999C11.5 25.1192 12.6193 23.9996 14 23.9996ZM13.9374 26.9374C14.2827 26.9374 14.5625 26.6569 14.5625 26.3122C14.5625 25.967 14.2827 25.6869 13.9374 25.6869C13.5923 25.6869 13.3125 25.967 13.3125 26.3122C13.3125 26.6569 13.5923 26.9374 13.9374 26.9374Z" fill="white"/>
<path fill-rule="evenodd" clip-rule="evenodd" d="M27.9746 20.1254C27.9766 20.2715 27.9548 20.416 27.8807 20.5481L21.9865 31.0668C21.9545 31.5228 21.621 31.8798 21.1811 31.963C21.1473 31.9725 21.1143 31.9781 21.0792 31.9838C21.0517 31.9861 21.0281 31.9997 21 31.9997H20V48.9996C20 49.5518 19.5523 49.9995 19 49.9995H9.00001C8.44774 49.9995 7.99999 49.5518 7.99999 48.9996V31.9997H7.00006C6.97192 31.9997 6.94837 31.9861 6.92079 31.9838C6.8857 31.9781 6.8528 31.9725 6.81895 31.963C6.37902 31.8798 6.04542 31.5228 6.01356 31.0668L0.11928 20.5481C0.045192 20.416 0.023352 20.2715 0.025368 20.1254C0.01974 20.0822 0 20.044 0 19.9997V3.99976C0 3.66636 0.17374 3.38551 0.42448 3.20381L3.20424 0.423862C3.3859 0.173312 3.66677 -0.000488281 4 -0.000488281H24C24.3333 -0.000488281 24.6141 0.173312 24.7958 0.423862L27.5756 3.20381C27.8262 3.38551 28 3.66636 28 3.99976V19.9997C28 20.044 27.9803 20.0822 27.9746 20.1254ZM10 47.9996H18V31.9997H10V47.9996ZM26 4.37111L23.6286 1.99986H4.37133L2.00004 4.37111V19.8135L7.70795 29.9998H20.292L26 19.8135V4.37111ZM7.99999 22.9996C6.34315 22.9996 5.00002 21.6564 5.00002 19.9997V7.99971C5.00002 6.34266 6.34315 4.99976 7.99999 4.99976H20C21.6569 4.99976 23 6.34266 23 7.99971V19.9997C23 21.6564 21.6569 22.9996 20 22.9996H7.99999ZM21 19.9997V7.99971C21 7.44706 20.5523 6.99971 20 6.99971H7.99999C7.44772 6.99971 7.00006 7.44706 7.00006 7.99971V19.9997C7.00006 20.5519 7.44772 20.9997 7.99999 20.9997H20C20.5523 20.9997 21 20.5519 21 19.9997ZM19 14.9998H18C17.4478 14.9998 17 14.5517 17 13.9999C17 13.4473 17.4478 12.9995 18 12.9995H19C19.5523 12.9995 20 13.4473 20 13.9999C20 14.5517 19.5523 14.9998 19 14.9998ZM18.2426 11.1711L17.5356 11.8781C17.145 12.2687 16.5118 12.2687 16.1214 11.8781C15.7308 11.4879 15.7308 10.8547 16.1214 10.4644L16.8284 9.75701C17.219 9.36641 17.8521 9.36641 18.2426 9.75701C18.6332 10.1476 18.6332 10.7805 18.2426 11.1711ZM14 15.9998C12.8955 15.9998 12 15.1043 12 13.9999C12 12.8951 12.8955 11.9996 14 11.9996C15.1046 11.9996 16 12.8951 16 13.9999C16 15.1043 15.1046 15.9998 14 15.9998ZM14 10.9996C13.4478 10.9996 13 10.5519 13 9.99966V8.99966C13 8.44706 13.4478 7.99971 14 7.99971C14.5523 7.99971 15 8.44706 15 8.99966V9.99966C15 10.5519 14.5523 10.9996 14 10.9996ZM11.8787 11.8781C11.4881 12.2687 10.855 12.2687 10.4645 11.8781L9.75741 11.1711C9.36687 10.7805 9.36687 10.1476 9.75741 9.75701C10.1478 9.36641 10.7811 9.36641 11.1716 9.75701L11.8787 10.4644C12.2692 10.8547 12.2692 11.4879 11.8787 11.8781ZM11.0001 13.9999C11.0001 14.5517 10.5523 14.9998 10 14.9998H9.00001C8.44774 14.9998 7.99999 14.5517 7.99999 13.9999C7.99999 13.4473 8.44774 12.9995 9.00001 12.9995H10C10.5523 12.9995 11.0001 13.4473 11.0001 13.9999ZM9.75741 16.828L10.4645 16.121C10.855 15.7304 11.4881 15.7304 11.8787 16.121C12.2692 16.5116 12.2692 17.1444 11.8787 17.5354L11.1716 18.242C10.7811 18.6326 10.1478 18.6326 9.75741 18.242C9.36687 17.8518 9.36687 17.2186 9.75741 16.828ZM14 16.9998C14.5523 16.9998 15 17.4472 15 17.9998V18.9998C15 19.552 14.5523 19.9997 14 19.9997C13.4478 19.9997 13 19.552 13 18.9998V17.9998C13 17.4472 13.4478 16.9998 14 16.9998ZM16.1214 16.121C16.5118 15.7304 17.145 15.7304 17.5356 16.121L18.2426 16.828C18.6332 17.2186 18.6332 17.8518 18.2426 18.242C17.8521 18.6326 17.219 18.6326 16.8284 18.242L16.1214 17.5354C15.7308 17.1444 15.7308 16.5116 16.1214 16.121ZM14 23.9996C15.3808 23.9996 16.5 25.1192 16.5 26.4999C16.5 27.8802 15.3808 28.9998 14 28.9998C12.6193 28.9998 11.5 27.8802 11.5 26.4999C11.5 25.1192 12.6193 23.9996 14 23.9996ZM13.9374 26.9374C14.2827 26.9374 14.5625 26.6569 14.5625 26.3122C14.5625 25.967 14.2827 25.6869 13.9374 25.6869C13.5923 25.6869 13.3125 25.967 13.3125 26.3122C13.3125 26.6569 13.5923 26.9374 13.9374 26.9374Z" fill="#8859CF"/>
</svg>
