<svg width="286" height="91" viewBox="0 0 286 91" fill="none" xmlns="http://www.w3.org/2000/svg">
<path fill-rule="evenodd" clip-rule="evenodd" d="M57.4749 15.8118C51.1385 15.0847 44.8022 11.7607 41.8936 9.57932C38.7774 7.19019 36.6999 5.42432 34.6224 5.42432C32.5449 5.42432 30.5713 7.19019 27.3511 9.57932C24.4426 11.7607 18.1062 15.0847 11.7698 15.8118C5.43346 16.539 1.38232 15.708 1.38232 19.9668C1.38232 24.2257 1.4862 50.0906 11.7698 64.6331C22.0535 79.1757 31.8178 84.3694 34.6224 84.3694C37.427 84.3694 47.1913 79.1757 57.4749 64.6331C67.7586 50.0906 67.8624 24.2257 67.8624 19.9668C67.8624 15.708 63.8113 16.539 57.4749 15.8118Z" fill="#4B28AF"/>
<path fill-rule="evenodd" clip-rule="evenodd" d="M57.0597 16.3341C50.8272 15.6069 44.5947 12.3868 41.7901 10.2054C38.7777 7.92017 36.7002 6.1543 34.6227 6.1543C32.5452 6.1543 30.5716 7.8163 27.4553 10.2054C24.8584 12.1791 19.4569 15.0876 13.8477 16.0224C14.367 40.8486 31.4026 61.6236 54.359 67.8561C55.2938 66.7135 56.1249 65.5709 57.0597 64.2205C67.1356 49.8857 67.2395 24.4363 67.2395 20.2813C67.3434 16.2302 63.2922 16.9573 57.0597 16.3341Z" fill="#6A3DBD"/>
<path fill-rule="evenodd" clip-rule="evenodd" d="M57.06 16.3341C50.8275 15.6069 44.595 12.3868 41.6865 10.2054C38.6741 7.92017 36.5966 6.1543 34.5191 6.1543C32.4416 6.1543 30.468 7.8163 27.3517 10.2054C26.1052 11.1403 24.2354 12.2829 21.9502 13.3217C27.7672 26.4099 40.7516 35.551 55.9174 35.551C59.6569 35.551 63.1886 35.0316 66.6165 33.9928C67.3437 27.3448 67.3437 22.1511 67.3437 20.3852C67.3437 16.2302 63.2925 16.9573 57.06 16.3341Z" fill="#854FC9"/>
<path fill-rule="evenodd" clip-rule="evenodd" d="M55.2936 46.7673C55.1897 46.0401 53.8393 45.9363 53.4238 45.4169C52.9045 44.8975 53.2161 44.2743 53.2161 44.2743C53.5277 44.482 54.5665 44.5859 55.5013 44.5859C56.4362 44.5859 56.8517 44.482 56.8517 44.482C56.8517 44.482 56.0207 43.3394 55.2936 42.4045C54.4626 41.4696 52.9045 39.3921 52.5928 38.8728C52.2812 38.4573 52.489 37.1069 50.827 35.0294C49.165 32.9519 46.0487 31.0821 46.0487 31.0821C48.4378 31.4976 49.7882 32.3286 49.996 32.4325C50.2037 32.5364 50.5153 30.0434 48.334 27.1349C46.1526 24.1225 42.2053 23.3954 41.6859 23.3954C41.1666 23.2915 41.1666 23.3954 41.5821 23.8109C41.9976 24.2264 42.6208 24.8496 42.6208 24.8496C40.7511 24.2264 37.1154 23.2915 33.3759 23.4993C29.6364 23.707 25.4814 25.7845 24.6504 26.3039C23.8194 26.8233 24.0272 26.8233 24.962 26.7194C25.8969 26.6155 27.2473 26.6155 27.2473 26.6155C27.2473 26.6155 23.5078 28.0698 21.4303 30.2511C19.3528 32.4325 17.483 34.51 16.652 36.8991C15.821 39.2883 15.6133 42.9239 15.6133 43.7549C15.6133 44.5859 15.7172 44.2743 16.0288 43.651C16.2365 43.0278 17.0675 40.6386 19.2489 38.0418C21.3264 35.4449 23.9233 34.0945 23.9233 34.0945C23.9233 34.0945 21.1187 37.2108 19.8722 39.7038C18.6257 42.1968 17.8985 45.6246 17.8985 48.1177C17.8985 50.7145 18.7295 54.454 20.1838 57.1548C21.638 59.8555 23.6117 61.6214 24.2349 62.1408C24.8582 62.764 24.962 62.5563 24.7543 62.2447C24.5465 62.0369 23.8194 61.102 23.1962 59.0245C22.5729 56.947 23.0923 54.5579 23.0923 54.5579C23.0923 54.5579 23.3 56.116 24.4427 57.8819C25.4814 59.6478 27.2473 60.9982 27.3512 60.9982C27.4551 60.9982 26.1047 57.778 26.1047 54.5579C26.1047 51.3378 26.624 49.6758 26.624 49.6758C27.1434 52.2727 28.1822 54.0385 29.1171 55.5967C30.0519 57.1548 32.6488 58.7129 34.2069 60.9982C35.7651 63.2834 34.8302 65.9842 34.8302 65.9842C39.6084 64.9454 40.9588 62.3485 40.9588 62.3485C40.9588 62.3485 41.0627 62.9718 40.8549 63.9067C40.7511 64.7377 40.3356 65.7764 40.3356 65.7764C41.4782 65.1532 44.0751 62.764 43.4518 59.9594C42.8286 57.1548 39.2968 55.3889 39.2968 55.3889C39.2968 55.3889 42.8286 56.6354 44.5945 58.7129C46.3603 60.7904 45.7371 63.4912 45.7371 63.4912C45.7371 63.4912 47.7107 61.2059 47.2952 58.4013C46.8797 55.5967 42.9325 54.0385 40.5433 53.2075C39.6084 52.792 38.7774 52.3765 38.1542 51.7533C40.1278 52.792 42.8286 52.9998 45.5293 54.2463C49.4766 56.116 49.0611 58.609 49.0611 58.609C49.0611 58.609 50.6192 57.8819 51.8657 56.5315C52.2812 56.116 52.8006 55.4928 53.1122 54.7657C53.9432 52.9998 53.2161 51.4417 53.2161 51.2339C53.1122 51.0262 53.32 50.8184 53.5277 50.4029C53.7355 49.9874 53.8393 49.2603 53.7355 49.2603C53.6316 49.2603 52.1773 49.8835 50.9308 50.4029C49.6843 50.8184 48.5417 51.0262 47.7107 50.6107C47.0875 50.0913 47.0875 48.8448 47.0875 48.8448C47.8146 49.2603 48.2301 49.3642 51.2425 48.9487C54.2548 48.5332 55.0858 47.4944 55.0858 47.4944C55.0858 47.4944 54.8781 48.1177 54.982 48.3254C54.982 48.4293 55.5013 47.9099 55.813 47.4944C56.2285 47.0789 56.3323 46.4557 56.2285 46.4557C56.1246 46.4557 55.2936 46.7673 55.2936 46.7673ZM37.6348 32.7441C37.6348 32.7441 38.9852 32.848 39.4007 32.9519C39.4007 32.9519 37.0116 33.4713 35.6612 35.1333C35.6612 35.1333 37.3232 34.7178 38.1542 34.9255C38.1542 34.9255 37.4271 37.3146 33.1682 37.834C33.1682 37.834 33.9992 36.7953 34.2069 35.341C34.4147 33.9906 34.1031 31.6015 35.5573 30.355C37.0116 29.1085 38.6736 29.3163 40.2317 30.4589C41.7898 31.7054 41.9976 32.3286 41.9976 32.3286C41.9976 32.3286 39.0891 31.9131 37.6348 32.7441ZM48.334 39.9115C47.9185 39.496 47.7107 39.0805 47.503 39.0805C47.2952 39.0805 45.841 39.0805 45.4255 38.7689C45.01 38.4573 44.9061 37.9379 44.9061 37.9379L44.3867 37.834C44.3867 37.834 45.9448 37.1069 47.0875 37.2108C48.2301 37.3146 48.4378 38.7689 49.0611 39.496C49.6843 40.327 50.6192 41.0541 50.6192 41.0541C50.6192 41.0541 48.7495 40.327 48.334 39.9115Z" fill="white"/>
<path d="M96.664 26.45H86.992L84.99 31H82.312L90.554 12.8H93.128L101.396 31H98.666L96.664 26.45ZM95.754 24.37L91.828 15.452L87.902 24.37H95.754ZM119.485 12.8V31H116.937V15.062H108.877L108.695 20.392C108.609 22.9053 108.401 24.942 108.071 26.502C107.759 28.062 107.257 29.2407 106.563 30.038C105.87 30.818 104.934 31.208 103.755 31.208C103.218 31.208 102.672 31.1387 102.117 31L102.299 28.686C102.577 28.7553 102.854 28.79 103.131 28.79C103.877 28.79 104.475 28.4953 104.925 27.906C105.376 27.2993 105.714 26.398 105.939 25.202C106.165 24.006 106.312 22.4287 106.381 20.47L106.667 12.8H119.485ZM133.136 19.144C135.303 19.144 136.958 19.6293 138.102 20.6C139.264 21.5707 139.844 23.0007 139.844 24.89C139.844 26.8833 139.22 28.4 137.972 29.44C136.742 30.48 134.974 31 132.668 31H125.154V12.8H127.728V19.144H133.136ZM132.564 28.946C134.072 28.946 135.225 28.608 136.022 27.932C136.837 27.2387 137.244 26.242 137.244 24.942C137.244 22.446 135.684 21.198 132.564 21.198H127.728V28.946H132.564ZM155.936 12.8V31H153.388V25.696H148.37C148.058 25.696 147.824 25.6873 147.668 25.67L144.028 31H141.272L145.302 25.228C144.002 24.7947 143.005 24.0753 142.312 23.07C141.618 22.0473 141.272 20.808 141.272 19.352C141.272 17.2893 141.93 15.686 143.248 14.542C144.582 13.3807 146.376 12.8 148.63 12.8H155.936ZM143.898 19.326C143.898 20.678 144.288 21.718 145.068 22.446C145.865 23.1567 147.035 23.512 148.578 23.512H153.388V15.062H148.734C147.174 15.062 145.978 15.426 145.146 16.154C144.314 16.882 143.898 17.9393 143.898 19.326ZM177.267 12.8V31H174.667V22.888H164.215V31H161.615V12.8H164.215V20.626H174.667V12.8H177.267ZM191.081 31.208C189.261 31.208 187.615 30.8093 186.141 30.012C184.685 29.1973 183.541 28.088 182.709 26.684C181.877 25.2627 181.461 23.668 181.461 21.9C181.461 20.132 181.877 18.546 182.709 17.142C183.541 15.7207 184.694 14.6113 186.167 13.814C187.641 12.9993 189.287 12.592 191.107 12.592C192.529 12.592 193.829 12.8347 195.007 13.32C196.186 13.788 197.191 14.49 198.023 15.426L196.333 17.064C194.964 15.6253 193.257 14.906 191.211 14.906C189.859 14.906 188.637 15.2093 187.545 15.816C186.453 16.4227 185.595 17.2633 184.971 18.338C184.365 19.3953 184.061 20.5827 184.061 21.9C184.061 23.2173 184.365 24.4133 184.971 25.488C185.595 26.5453 186.453 27.3773 187.545 27.984C188.637 28.5907 189.859 28.894 191.211 28.894C193.239 28.894 194.947 28.166 196.333 26.71L198.023 28.348C197.191 29.284 196.177 29.9947 194.981 30.48C193.803 30.9653 192.503 31.208 191.081 31.208ZM87.134 48.964C88.2673 48.964 89.2873 49.2303 90.194 49.763C91.1007 50.2843 91.8147 51.0097 92.336 51.939C92.8573 52.857 93.118 53.894 93.118 55.05C93.118 56.206 92.8573 57.2487 92.336 58.178C91.8147 59.096 91.1007 59.8213 90.194 60.354C89.2873 60.8753 88.2673 61.136 87.134 61.136C86.1593 61.136 85.2753 60.9773 84.482 60.66C83.6887 60.3427 83.0257 59.878 82.493 59.266L83.564 58.195C84.4593 59.1357 85.621 59.606 87.049 59.606C87.8083 59.606 88.4997 59.4417 89.123 59.113C89.7463 58.773 90.2563 58.3027 90.653 57.702C91.0497 57.1013 91.2877 56.4157 91.367 55.645H85.604V54.251H91.35C91.2367 53.5143 90.9817 52.8627 90.585 52.296C90.1883 51.7293 89.684 51.2873 89.072 50.97C88.46 50.6527 87.7857 50.494 87.049 50.494C85.6323 50.494 84.4707 50.9643 83.564 51.905L82.493 50.834C83.0257 50.222 83.6887 49.7573 84.482 49.44C85.2867 49.1227 86.1707 48.964 87.134 48.964ZM100.021 55.764H97.5385V61H95.8725V49.1H97.5385V54.268H100.055L103.795 49.1H105.614L101.364 54.863L105.818 61H103.88L100.021 55.764ZM112.848 61.136C111.658 61.136 110.581 60.8753 109.618 60.354C108.666 59.8213 107.918 59.096 107.374 58.178C106.83 57.2487 106.558 56.206 106.558 55.05C106.558 53.894 106.83 52.857 107.374 51.939C107.918 51.0097 108.671 50.2843 109.635 49.763C110.598 49.2303 111.675 48.964 112.865 48.964C113.794 48.964 114.644 49.1227 115.415 49.44C116.185 49.746 116.843 50.205 117.387 50.817L116.282 51.888C115.386 50.9473 114.27 50.477 112.933 50.477C112.049 50.477 111.25 50.6753 110.536 51.072C109.822 51.4687 109.261 52.0183 108.853 52.721C108.456 53.4123 108.258 54.1887 108.258 55.05C108.258 55.9113 108.456 56.6933 108.853 57.396C109.261 58.0873 109.822 58.6313 110.536 59.028C111.25 59.4247 112.049 59.623 112.933 59.623C114.259 59.623 115.375 59.147 116.282 58.195L117.387 59.266C116.843 59.878 116.18 60.3427 115.398 60.66C114.627 60.9773 113.777 61.136 112.848 61.136ZM129.98 49.1V61H128.314V50.579H121.412V61H119.729V49.1H129.98ZM142.327 59.521V61H133.691V49.1H142.089V50.579H135.391V54.234H141.358V55.679H135.391V59.521H142.327ZM149.638 49.1C151.179 49.1 152.392 49.4683 153.276 50.205C154.16 50.9417 154.602 51.956 154.602 53.248C154.602 54.54 154.16 55.5543 153.276 56.291C152.392 57.0277 151.179 57.396 149.638 57.396H146.697V61H144.997V49.1H149.638ZM149.587 55.917C150.663 55.917 151.485 55.6903 152.052 55.237C152.618 54.7723 152.902 54.1093 152.902 53.248C152.902 52.3867 152.618 51.7293 152.052 51.276C151.485 50.8113 150.663 50.579 149.587 50.579H146.697V55.917H149.587ZM164.761 50.579H160.681V61H159.015V50.579H154.952V49.1H164.761V50.579ZM166.828 49.1H168.511V58.28L175.549 49.1H177.113V61H175.447V51.837L168.392 61H166.828V49.1ZM186.518 54.795C187.266 54.999 187.849 55.356 188.269 55.866C188.688 56.3647 188.898 56.9653 188.898 57.668C188.898 58.3707 188.671 58.9883 188.218 59.521C187.776 60.0423 187.181 60.4447 186.433 60.728C185.696 61 184.891 61.136 184.019 61.136C183.225 61.136 182.438 61.017 181.656 60.779C180.874 60.541 180.16 60.184 179.514 59.708L180.109 58.45C180.63 58.858 181.214 59.164 181.86 59.368C182.506 59.572 183.157 59.674 183.815 59.674C184.767 59.674 185.566 59.4757 186.212 59.079C186.858 58.671 187.181 58.1157 187.181 57.413C187.181 56.8123 186.937 56.3533 186.45 56.036C185.962 55.7073 185.277 55.543 184.393 55.543H181.741V54.166H184.274C185.033 54.166 185.622 54.013 186.042 53.707C186.472 53.3897 186.688 52.9533 186.688 52.398C186.688 51.7747 186.41 51.2817 185.855 50.919C185.299 50.5563 184.597 50.375 183.747 50.375C183.191 50.375 182.625 50.4543 182.047 50.613C181.48 50.7717 180.942 51.0097 180.432 51.327L179.888 49.933C180.488 49.593 181.123 49.338 181.792 49.168C182.46 48.998 183.129 48.913 183.798 48.913C184.636 48.913 185.407 49.0433 186.11 49.304C186.812 49.5647 187.368 49.9443 187.776 50.443C188.195 50.9417 188.405 51.5253 188.405 52.194C188.405 52.7947 188.235 53.3217 187.895 53.775C187.566 54.2283 187.107 54.5683 186.518 54.795ZM199.465 58.025H193.141L191.832 61H190.081L195.47 49.1H197.153L202.559 61H200.774L199.465 58.025ZM198.87 56.665L196.303 50.834L193.736 56.665H198.87ZM83.526 71.2H84.912V78.76L90.708 71.2H91.996V81H90.624V73.454L84.814 81H83.526V71.2ZM105.181 78.55H99.9732L98.8952 81H97.4532L101.891 71.2H103.277L107.729 81H106.259L105.181 78.55ZM104.691 77.43L102.577 72.628L100.463 77.43H104.691ZM118.8 79.782V83.142H117.498V81H109.434L109.42 83.142H108.118L108.132 79.782H108.608C109.224 79.7447 109.658 79.2593 109.91 78.326C110.162 77.3833 110.316 76.058 110.372 74.35L110.47 71.2H117.358V79.782H118.8ZM111.604 74.476C111.557 75.8573 111.445 77.0007 111.268 77.906C111.1 78.8113 110.824 79.4367 110.442 79.782H115.972V72.418H111.674L111.604 74.476ZM126.818 75.918C127.48 76.0767 127.98 76.3613 128.316 76.772C128.661 77.1733 128.834 77.6913 128.834 78.326C128.834 79.1753 128.521 79.8333 127.896 80.3C127.28 80.7667 126.379 81 125.194 81H120.714V71.2H124.928C126.001 71.2 126.836 71.4193 127.434 71.858C128.04 72.2873 128.344 72.908 128.344 73.72C128.344 74.252 128.208 74.7047 127.938 75.078C127.676 75.4513 127.303 75.7313 126.818 75.918ZM122.1 75.512H124.83C125.511 75.512 126.029 75.3767 126.383 75.106C126.748 74.8353 126.93 74.4387 126.93 73.916C126.93 73.3933 126.748 72.9967 126.383 72.726C126.02 72.446 125.502 72.306 124.83 72.306H122.1V75.512ZM125.166 79.894C126.668 79.894 127.419 79.334 127.419 78.214C127.419 77.654 127.228 77.2433 126.846 76.982C126.472 76.7113 125.912 76.576 125.166 76.576H122.1V79.894H125.166ZM135.582 81.112C134.593 81.112 133.702 80.8973 132.908 80.468C132.115 80.0293 131.49 79.4273 131.032 78.662C130.584 77.8967 130.36 77.0427 130.36 76.1C130.36 75.1573 130.584 74.3033 131.032 73.538C131.49 72.7727 132.115 72.1753 132.908 71.746C133.702 71.3073 134.593 71.088 135.582 71.088C136.562 71.088 137.449 71.3073 138.242 71.746C139.036 72.1753 139.656 72.7727 140.104 73.538C140.552 74.294 140.776 75.148 140.776 76.1C140.776 77.052 140.552 77.9107 140.104 78.676C139.656 79.432 139.036 80.0293 138.242 80.468C137.449 80.8973 136.562 81.112 135.582 81.112ZM135.582 79.866C136.301 79.866 136.945 79.7027 137.514 79.376C138.093 79.0493 138.546 78.6013 138.872 78.032C139.208 77.4533 139.376 76.8093 139.376 76.1C139.376 75.3907 139.208 74.7513 138.872 74.182C138.546 73.6033 138.093 73.1507 137.514 72.824C136.945 72.4973 136.301 72.334 135.582 72.334C134.864 72.334 134.21 72.4973 133.622 72.824C133.044 73.1507 132.586 73.6033 132.25 74.182C131.924 74.7513 131.76 75.3907 131.76 76.1C131.76 76.8093 131.924 77.4533 132.25 78.032C132.586 78.6013 133.044 79.0493 133.622 79.376C134.21 79.7027 134.864 79.866 135.582 79.866ZM146.456 76.688H144.412V81H143.04V71.2H144.412V75.456H146.484L149.564 71.2H151.062L147.562 75.946L151.23 81H149.634L146.456 76.688ZM158.898 78.55H153.69L152.612 81H151.17L155.608 71.2H156.994L161.446 81H159.976L158.898 78.55ZM158.408 77.43L156.294 72.628L154.18 77.43H158.408ZM169.379 72.418H166.019V81H164.647V72.418H161.301V71.2H169.379V72.418ZM175.326 81.112C174.346 81.112 173.459 80.8973 172.666 80.468C171.882 80.0293 171.266 79.432 170.818 78.676C170.37 77.9107 170.146 77.052 170.146 76.1C170.146 75.148 170.37 74.294 170.818 73.538C171.266 72.7727 171.887 72.1753 172.68 71.746C173.473 71.3073 174.36 71.088 175.34 71.088C176.105 71.088 176.805 71.2187 177.44 71.48C178.075 71.732 178.616 72.11 179.064 72.614L178.154 73.496C177.417 72.7213 176.497 72.334 175.396 72.334C174.668 72.334 174.01 72.4973 173.422 72.824C172.834 73.1507 172.372 73.6033 172.036 74.182C171.709 74.7513 171.546 75.3907 171.546 76.1C171.546 76.8093 171.709 77.4533 172.036 78.032C172.372 78.6013 172.834 79.0493 173.422 79.376C174.01 79.7027 174.668 79.866 175.396 79.866C176.488 79.866 177.407 79.474 178.154 78.69L179.064 79.572C178.616 80.076 178.07 80.4587 177.426 80.72C176.791 80.9813 176.091 81.112 175.326 81.112ZM184.409 76.688H182.365V81H180.993V71.2H182.365V75.456H184.437L187.517 71.2H189.015L185.515 75.946L189.183 81H187.587L184.409 76.688ZM196.851 78.55H191.643L190.565 81H189.123L193.561 71.2H194.947L199.399 81H197.929L196.851 78.55ZM196.361 77.43L194.247 72.628L192.133 77.43H196.361ZM207.808 71.2V81H206.436V78.144H203.734C203.566 78.144 203.44 78.1393 203.356 78.13L201.396 81H199.912L202.082 77.892C201.382 77.6587 200.845 77.2713 200.472 76.73C200.098 76.1793 199.912 75.512 199.912 74.728C199.912 73.6173 200.266 72.754 200.976 72.138C201.694 71.5127 202.66 71.2 203.874 71.2H207.808ZM201.326 74.714C201.326 75.442 201.536 76.002 201.956 76.394C202.385 76.7767 203.015 76.968 203.846 76.968H206.436V72.418H203.93C203.09 72.418 202.446 72.614 201.998 73.006C201.55 73.398 201.326 73.9673 201.326 74.714ZM219.316 75.89C219.932 76.058 220.412 76.352 220.758 76.772C221.103 77.1827 221.276 77.6773 221.276 78.256C221.276 78.8347 221.089 79.3433 220.716 79.782C220.352 80.2113 219.862 80.5427 219.246 80.776C218.639 81 217.976 81.112 217.258 81.112C216.604 81.112 215.956 81.014 215.312 80.818C214.668 80.622 214.08 80.328 213.548 79.936L214.038 78.9C214.467 79.236 214.948 79.488 215.48 79.656C216.012 79.824 216.548 79.908 217.09 79.908C217.874 79.908 218.532 79.7447 219.064 79.418C219.596 79.082 219.862 78.6247 219.862 78.046C219.862 77.5513 219.661 77.1733 219.26 76.912C218.858 76.6413 218.294 76.506 217.566 76.506H215.382V75.372H217.468C218.093 75.372 218.578 75.246 218.924 74.994C219.278 74.7327 219.456 74.3733 219.456 73.916C219.456 73.4027 219.227 72.9967 218.77 72.698C218.312 72.3993 217.734 72.25 217.034 72.25C216.576 72.25 216.11 72.3153 215.634 72.446C215.167 72.5767 214.724 72.7727 214.304 73.034L213.856 71.886C214.35 71.606 214.873 71.396 215.424 71.256C215.974 71.116 216.525 71.046 217.076 71.046C217.766 71.046 218.401 71.1533 218.98 71.368C219.558 71.5827 220.016 71.8953 220.352 72.306C220.697 72.7167 220.87 73.1973 220.87 73.748C220.87 74.2427 220.73 74.6767 220.45 75.05C220.179 75.4233 219.801 75.7033 219.316 75.89ZM229.978 78.55H224.77L223.692 81H222.25L226.688 71.2H228.074L232.526 81H231.056L229.978 78.55ZM229.488 77.43L227.374 72.628L225.26 77.43H229.488ZM246.495 71.2V81H234.217V71.2H235.603V79.782H239.677V71.2H241.049V79.782H245.123V71.2H246.495ZM247.965 79.782V83.142H246.677V81H245.095V79.782H247.965ZM249.899 71.2H251.285V78.76L257.081 71.2H258.369V81H256.997V73.454L251.187 81H249.899V71.2ZM268.158 72.418H264.798V81H263.426V72.418H260.08V71.2H268.158V72.418ZM275.738 78.55H270.53L269.452 81H268.01L272.448 71.2H273.834L278.286 81H276.816L275.738 78.55ZM275.248 77.43L273.134 72.628L271.02 77.43H275.248Z" fill="#555555"/>
</svg>
