<svg width="32" height="32" viewBox="0 0 32 32" fill="none" xmlns="http://www.w3.org/2000/svg">
<path fill-rule="evenodd" clip-rule="evenodd" d="M4.42847 9.31429V9.31429C4.42847 10.0857 4.81418 10.7286 5.45704 11.2429L13.1713 16.5143C14.9713 17.6714 17.157 17.6714 18.957 16.5143L26.6713 11.3714C27.1856 10.7286 27.5713 10.0857 27.5713 9.31429V9.31429C27.5713 8.02857 26.5428 7 25.257 7H6.74275C5.45704 7 4.42847 8.02857 4.42847 9.31429Z" stroke="#333333" stroke-width="1.5" stroke-linecap="round" stroke-linejoin="round"/>
<path d="M4.42847 9.57129V22.4284C4.42847 23.8427 5.58561 24.9999 6.9999 24.9999H24.9999C26.4142 24.9999 27.5713 23.8427 27.5713 22.4284V9.57129" stroke="#333333" stroke-width="1.5" stroke-linecap="round" stroke-linejoin="round"/>
<path d="M5.18384 24.2438L13.019 16.4087" stroke="#333333" stroke-width="1.5" stroke-linecap="round" stroke-linejoin="round"/>
<path d="M19.0344 16.4629L26.8156 24.244" stroke="#333333" stroke-width="1.5" stroke-linecap="round" stroke-linejoin="round"/>
</svg>
