<svg width="32" height="32" viewBox="0 0 32 32" fill="none" xmlns="http://www.w3.org/2000/svg">
<path fill-rule="evenodd" clip-rule="evenodd" d="M24.2719 7.68144C22.0772 5.48544 19.1585 4.27477 16.0492 4.27344C9.63986 4.27344 4.4252 9.48544 4.42386 15.8921C4.4212 17.9308 4.95586 19.9348 5.97453 21.7014L4.3252 27.7228L10.4879 26.1068C12.1932 27.0348 14.1025 27.5214 16.0439 27.5214H16.0492C22.4559 27.5214 27.6705 22.3081 27.6732 15.9014C27.6745 12.7974 26.4665 9.87877 24.2719 7.68144Z" stroke="#333333" stroke-width="1.5" stroke-linecap="round" stroke-linejoin="round"/>
<path fill-rule="evenodd" clip-rule="evenodd" d="M17.46 18.0799L18.0013 17.5425C18.4987 17.0492 19.2853 16.9865 19.8587 17.3892C20.4133 17.7785 20.9147 18.1279 21.3813 18.4532C22.1227 18.9679 22.212 20.0239 21.5733 20.6612L21.0947 21.1399" stroke="#333333" stroke-width="1.5" stroke-linecap="round" stroke-linejoin="round"/>
<path fill-rule="evenodd" clip-rule="evenodd" d="M10.8601 10.9045L11.3387 10.4259C11.9761 9.78854 13.0321 9.87788 13.5467 10.6179C13.8707 11.0845 14.2201 11.5859 14.6107 12.1405C15.0134 12.7139 14.9521 13.5005 14.4574 13.9979L13.9201 14.5392" stroke="#333333" stroke-width="1.5" stroke-linecap="round" stroke-linejoin="round"/>
</svg>
