<svg width="32" height="32" viewBox="0 0 32 32" fill="none" xmlns="http://www.w3.org/2000/svg">
<path fill-rule="evenodd" clip-rule="evenodd" d="M24.2719 7.68144C22.0772 5.48544 19.1585 4.27477 16.0492 4.27344C9.63986 4.27344 4.4252 9.48544 4.42386 15.8921C4.4212 17.9308 4.95586 19.9348 5.97453 21.7014L4.3252 27.7228L10.4879 26.1068C12.1932 27.0348 14.1025 27.5214 16.0439 27.5214H16.0492C22.4559 27.5214 27.6705 22.3081 27.6732 15.9014C27.6745 12.7974 26.4665 9.87877 24.2719 7.68144Z" stroke="#333333" stroke-width="1.5" stroke-linecap="round" stroke-linejoin="round"/>
<path d="M15.508 16.5018C14.7487 15.7441 14.1314 14.8721 13.9176 14.5308C14.0458 14.4199 14.3691 14.111 14.6358 13.7629C14.9693 13.3277 14.9437 12.7901 14.7641 12.4318C14.5845 12.0734 13.815 10.9471 13.5841 10.6655C13.3533 10.384 13.0454 10 12.4041 10C11.7629 10 11.2755 10.4096 10.7624 11.0239C10.2494 11.6382 9.91594 12.3806 10.0185 13.5325C10.1212 14.6844 11.0446 16.6042 12.5581 18.1912C14.0715 19.7783 15.5593 20.9558 17.0984 21.5957C18.6375 22.2357 19.7405 21.9797 20.2279 21.7493C20.7153 21.5189 21.177 21.1094 21.4592 20.7766C21.7413 20.4438 21.9722 20.1879 21.9978 19.7015C22.0235 19.2151 21.8183 18.8056 21.5361 18.5752C21.2539 18.3448 20.5357 17.8585 19.8688 17.4233C19.2018 16.9882 18.5349 17.1161 18.0731 17.5001C17.7038 17.8073 17.4917 18.0206 17.4319 18.0889C17.1069 17.8755 16.2673 17.2595 15.508 16.5018Z" stroke="#333333" stroke-width="1.5"/>
</svg>
