<svg width="32" height="32" viewBox="0 0 32 32" fill="none" xmlns="http://www.w3.org/2000/svg">
<path d="M4.75 15.52C4.75 12.7835 4.75159 10.8066 4.9542 9.29965C5.1539 7.81429 5.53644 6.89835 6.2174 6.2174C6.89835 5.53644 7.81429 5.1539 9.29965 4.9542C10.8066 4.75159 12.7835 4.75 15.52 4.75H16.48C19.2165 4.75 21.1934 4.75159 22.7003 4.9542C24.1857 5.1539 25.1016 5.53644 25.7826 6.2174C26.4636 6.89835 26.8461 7.81429 27.0458 9.29965C27.2484 10.8066 27.25 12.7835 27.25 15.52V16.48C27.25 19.2165 27.2484 21.1934 27.0458 22.7003C26.8461 24.1857 26.4636 25.1016 25.7826 25.7826C25.1016 26.4636 24.1857 26.8461 22.7003 27.0458C21.1934 27.2484 19.2165 27.25 16.48 27.25H15.52C12.7835 27.25 10.8066 27.2484 9.29965 27.0458C7.81429 26.8461 6.89835 26.4636 6.2174 25.7826C5.53644 25.1016 5.1539 24.1857 4.9542 22.7003C4.75159 21.1934 4.75 19.2165 4.75 16.48V15.52Z" stroke="#333333" stroke-width="1.5"/>
<path d="M16 11V20C13.8333 19.8333 9.5 18.6 9.5 11M22 11C21.2 15 18 16 16.5 16C18.0503 16.155 21.2156 17.2329 22.294 20.28C22.3323 20.3882 22.368 20.499 22.4008 20.6122" stroke="#333333" stroke-width="1.5"/>
</svg>
