<svg width="70" height="70" viewBox="0 0 70 70" fill="none" xmlns="http://www.w3.org/2000/svg">
<path d="M31.5 40H35.76L32.44 43.32C31.83 43.93 31.83 44.92 32.44 45.53C33.05 46.14 34.04 46.14 34.65 45.53L40.53 39.65C40.69 39.49 40.8 39.3 40.88 39.09C40.96 38.91 41 38.71 41 38.5C41 37.86 40.59 37.32 40.02 37.11C39.8 37.02 39.57 36.99 39.34 37H35.17L38.52 33.65C39.13 33.04 39.13 32.05 38.52 31.44C37.91 30.83 36.92 30.83 36.31 31.44L30.43 37.32C29.97 37.78 29.86 38.46 30.09 39.02C30.32 39.59 30.86 40 31.5 40ZM53 20H50V10C50 7.79 48.21 6 46 6C43.79 6 42 7.79 42 10V20H30V10C30 7.79 28.21 6 26 6C23.79 6 22 7.79 22 10V20H18C15.79 20 14 21.79 14 24C14 25.86 15.28 27.41 17 27.86V43C17 48.52 21.48 53 27 53H30V57.5C30 58.33 30.67 59 31.5 59H34V63.5C34 64.33 34.67 65 35.5 65C36.33 65 37 64.33 37 63.5V59H39.5C40.33 59 41 58.33 41 57.5V53H44C49.52 53 54 48.52 54 43V27.86C55.72 27.41 57 25.86 57 24C57 21.79 55.21 20 53 20ZM45 10C45 9.45 45.45 9 46 9C46.55 9 47 9.45 47 10V20H45V10ZM25 10C25 9.45 25.45 9 26 9C26.55 9 27 9.45 27 10V20H25V10ZM38 56H33V53H38V56ZM51 43C51 46.87 47.87 50 44 50H27C23.13 50 20 46.87 20 43V28H51V43ZM53 25H18C17.45 25 17 24.55 17 24C17 23.45 17.45 23 18 23H53C53.55 23 54 23.45 54 24C54 24.55 53.55 25 53 25Z" fill="#8859CF"/>
</svg>
