<svg width="60" height="60" viewBox="0 0 60 60" fill="none" xmlns="http://www.w3.org/2000/svg">
<path d="M52 9H40V8C40 5.24 37.76 3 35 3H25C22.24 3 20 5.24 20 8V9H8C5.24 9 3 11.24 3 14V22V33V51C3 53.76 5.24 56 8 56H52C54.76 56 57 53.76 57 51V33V22V14C57 11.24 54.76 9 52 9ZM23 8C23 6.9 23.9 6 25 6H35C36.1 6 37 6.9 37 8V9H23V8ZM54 51C54 52.1 53.1 53 52 53H8C6.9 53 6 52.1 6 51V37.58C6.61 37.85 7.29 38 8 38H12C12 40.76 14.24 43 17 43H18C20.76 43 23 40.76 23 38H37C37 40.76 39.24 43 42 43H43C45.76 43 48 40.76 48 38H52C52.71 38 53.39 37.85 54 37.58V51ZM15 38V35C15 33.9 15.9 33 17 33H18C19.1 33 20 33.9 20 35V38C20 39.1 19.1 40 18 40H17C15.9 40 15 39.1 15 38ZM40 38V35C40 33.9 40.9 33 42 33H43C44.1 33 45 33.9 45 35V38C45 39.1 44.1 40 43 40H42C40.9 40 40 39.1 40 38ZM54 22V33C54 34.1 53.1 35 52 35H48C48 32.24 45.76 30 43 30H42C39.24 30 37 32.24 37 35H23C23 32.24 20.76 30 18 30H17C14.24 30 12 32.24 12 35H8C6.9 35 6 34.1 6 33V22V14C6 12.9 6.9 12 8 12H52C53.1 12 54 12.9 54 14V22Z" fill="url(#paint0_linear_707_229)"/>
<path d="M52 9H40V8C40 5.24 37.76 3 35 3H25C22.24 3 20 5.24 20 8V9H8C5.24 9 3 11.24 3 14V22V33V51C3 53.76 5.24 56 8 56H52C54.76 56 57 53.76 57 51V33V22V14C57 11.24 54.76 9 52 9ZM23 8C23 6.9 23.9 6 25 6H35C36.1 6 37 6.9 37 8V9H23V8ZM54 51C54 52.1 53.1 53 52 53H8C6.9 53 6 52.1 6 51V37.58C6.61 37.85 7.29 38 8 38H12C12 40.76 14.24 43 17 43H18C20.76 43 23 40.76 23 38H37C37 40.76 39.24 43 42 43H43C45.76 43 48 40.76 48 38H52C52.71 38 53.39 37.85 54 37.58V51ZM15 38V35C15 33.9 15.9 33 17 33H18C19.1 33 20 33.9 20 35V38C20 39.1 19.1 40 18 40H17C15.9 40 15 39.1 15 38ZM40 38V35C40 33.9 40.9 33 42 33H43C44.1 33 45 33.9 45 35V38C45 39.1 44.1 40 43 40H42C40.9 40 40 39.1 40 38ZM54 22V33C54 34.1 53.1 35 52 35H48C48 32.24 45.76 30 43 30H42C39.24 30 37 32.24 37 35H23C23 32.24 20.76 30 18 30H17C14.24 30 12 32.24 12 35H8C6.9 35 6 34.1 6 33V22V14C6 12.9 6.9 12 8 12H52C53.1 12 54 12.9 54 14V22Z" fill="#8859CF"/>
<defs>
<linearGradient id="paint0_linear_707_229" x1="6.2144" y1="56.285" x2="53.7855" y2="8.7138" gradientUnits="userSpaceOnUse">
<stop stop-color="#4A27AF"/>
<stop offset="1" stop-color="#5D8FFF"/>
</linearGradient>
</defs>
</svg>
