<svg width="60" height="60" viewBox="0 0 60 60" fill="none" xmlns="http://www.w3.org/2000/svg">
<path d="M49.5 47C48.67 47 48 47.67 48 48.5V55H12V12H20V14H41V12H48V29.5C48 30.33 48.67 31 49.5 31C50.33 31 51 30.33 51 29.5V10.5C51 9.67 50.33 9 49.5 9H41V6H36.6C35.7 3.67 33.32 2 30.5 2C27.67 2 25.29 3.67 24.4 6H20V9H10.5C9.67 9 9 9.67 9 10.5V56.5C9 57.33 9.67 58 10.5 58H49.5C50.33 58 51 57.33 51 56.5V48.5C51 47.67 50.33 47 49.5 47ZM23 9H27.21C27.08 8.69 27 8.35 27 8C27 6.34 28.57 5 30.5 5C32.43 5 34 6.34 34 8C34 8.35 33.92 8.69 33.79 9H38V11H23V9ZM55.57 32.4C55 31.83 54.08 31.83 53.51 32.4L41.47 44.44L36.46 39.43C35.9 38.87 34.98 38.87 34.42 39.43C33.86 39.99 33.86 40.91 34.42 41.47L40.12 47.17C40.19 47.31 40.27 47.45 40.39 47.57C40.82 48 41.46 48.1 41.99 47.87C42.19 47.8 42.38 47.7 42.53 47.54C42.58 47.49 42.61 47.42 42.65 47.36L55.55 34.46C56.14 33.89 56.14 32.97 55.57 32.4ZM40 31.5C40 30.67 39.33 30 38.5 30H21.5C20.67 30 20 30.67 20 31.5C20 32.33 20.67 33 21.5 33H38.5C39.33 33 40 32.33 40 31.5ZM38.5 23H21.5C20.67 23 20 23.67 20 24.5C20 25.33 20.67 26 21.5 26H38.5C39.33 26 40 25.33 40 24.5C40 23.67 39.33 23 38.5 23ZM21.5 37C20.67 37 20 37.67 20 38.5C20 39.33 20.67 40 21.5 40H27.5C28.33 40 29 39.33 29 38.5C29 37.67 28.33 37 27.5 37H21.5Z" fill="#8859CF"/>
</svg>
