<svg width="32" height="32" viewBox="0 0 32 32" fill="none" xmlns="http://www.w3.org/2000/svg">
<circle cx="16" cy="16" r="15.25" transform="matrix(-1 0 0 1 32 0)" stroke="#8859CF" stroke-width="1.5"/>
<path d="M15.5839 21.1392C15.1298 21.1326 14.6824 21.0497 14.2416 20.8906C13.8041 20.7315 13.4063 20.4664 13.0484 20.0952C12.6904 19.724 12.4037 19.2251 12.1883 18.5987C11.9762 17.9723 11.8701 17.1901 11.8701 16.2521C11.8701 15.3639 11.9579 14.575 12.1336 13.8857C12.3126 13.1963 12.5695 12.6146 12.9042 12.1406C13.239 11.6634 13.6433 11.3004 14.1173 11.0518C14.5912 10.8033 15.1232 10.679 15.7132 10.679C16.3197 10.679 16.8583 10.7983 17.3289 11.0369C17.7996 11.2756 18.1807 11.6054 18.4724 12.0263C18.7674 12.4472 18.9546 12.9261 19.0342 13.4631H17.5178C17.4151 13.0388 17.2113 12.6925 16.9063 12.424C16.6014 12.1555 16.2037 12.0213 15.7132 12.0213C14.9674 12.0213 14.3857 12.3461 13.9681 12.9957C13.5538 13.6454 13.345 14.5485 13.3417 15.7053H13.4163C13.5919 15.4169 13.8074 15.1716 14.0626 14.9695C14.3211 14.764 14.6095 14.6065 14.9276 14.4972C15.2491 14.3845 15.5872 14.3281 15.9419 14.3281C16.5318 14.3281 17.0654 14.4723 17.5427 14.7607C18.0233 15.0457 18.4061 15.4401 18.6911 15.9439C18.9762 16.4477 19.1187 17.0244 19.1187 17.674C19.1187 18.3236 18.9712 18.9119 18.6762 19.4389C18.3846 19.9659 17.9736 20.3835 17.4433 20.6918C16.913 20.9967 16.2932 21.1458 15.5839 21.1392ZM15.5789 19.8466C15.97 19.8466 16.3197 19.7505 16.6279 19.5582C16.9362 19.366 17.1798 19.1075 17.3588 18.7827C17.5377 18.4579 17.6272 18.0949 17.6272 17.6939C17.6272 17.3028 17.5394 16.9465 17.3637 16.625C17.1914 16.3035 16.9527 16.0483 16.6478 15.8594C16.3462 15.6705 16.0015 15.576 15.6137 15.576C15.3187 15.576 15.0453 15.6323 14.7934 15.745C14.5448 15.8577 14.3261 16.0135 14.1372 16.2124C13.9482 16.4112 13.7991 16.6399 13.6897 16.8984C13.5837 17.1536 13.5306 17.4238 13.5306 17.7088C13.5306 18.09 13.6185 18.4429 13.7941 18.7678C13.9731 19.0926 14.2167 19.3544 14.5249 19.5533C14.8365 19.7488 15.1878 19.8466 15.5789 19.8466Z" fill="#8859CF"/>
</svg>
