<svg width="32" height="32" viewBox="0 0 32 32" fill="none" xmlns="http://www.w3.org/2000/svg">
<circle cx="16" cy="16" r="15.25" transform="matrix(-1 0 0 1 32 0)" stroke="#8859CF" stroke-width="1.5"/>
<path d="M15.4994 21.1392C14.8763 21.1392 14.3161 21.0199 13.819 20.7812C13.3251 20.5393 12.9307 20.2079 12.6357 19.7869C12.3408 19.366 12.1833 18.8854 12.1634 18.3452H13.6549C13.6914 18.7827 13.8853 19.1423 14.2366 19.424C14.5879 19.7057 15.0088 19.8466 15.4994 19.8466C15.8905 19.8466 16.2368 19.7571 16.5384 19.5781C16.8434 19.3958 17.082 19.1456 17.2544 18.8274C17.43 18.5092 17.5178 18.1463 17.5178 17.7386C17.5178 17.3243 17.4284 16.9548 17.2494 16.63C17.0704 16.3052 16.8235 16.05 16.5086 15.8643C16.1971 15.6787 15.8391 15.5843 15.4347 15.581C15.1265 15.581 14.8166 15.634 14.5051 15.7401C14.1935 15.8461 13.9416 15.9853 13.7494 16.1577L12.3424 15.9489L12.9142 10.8182H18.5122V12.1357H14.1919L13.8687 14.9844H13.9284C14.1272 14.7921 14.3907 14.6314 14.7188 14.5021C15.0503 14.3729 15.4049 14.3082 15.7828 14.3082C16.4026 14.3082 16.9544 14.4557 17.4383 14.7507C17.9255 15.0457 18.3083 15.4484 18.5867 15.9588C18.8685 16.4659 19.0077 17.0492 19.0044 17.7088C19.0077 18.3684 18.8585 18.9567 18.5569 19.4737C18.2586 19.9908 17.8443 20.3984 17.314 20.6967C16.787 20.9917 16.1821 21.1392 15.4994 21.1392Z" fill="#8859CF"/>
</svg>
