<svg width="32" height="32" viewBox="0 0 32 32" fill="none" xmlns="http://www.w3.org/2000/svg">
<circle cx="16" cy="16" r="15.25" transform="matrix(-1 0 0 1 32 0)" stroke="#8859CF" stroke-width="1.5"/>
<path d="M12.1864 21V19.8864L15.6317 16.3168C15.9996 15.929 16.3029 15.5893 16.5415 15.2976C16.7835 15.0026 16.9641 14.7225 17.0835 14.4574C17.2028 14.1922 17.2624 13.9105 17.2624 13.6122C17.2624 13.2741 17.1829 12.9825 17.0238 12.7372C16.8647 12.4886 16.6476 12.2981 16.3725 12.1655C16.0974 12.0296 15.7875 11.9616 15.4428 11.9616C15.0782 11.9616 14.7601 12.0362 14.4883 12.1854C14.2165 12.3345 14.0077 12.545 13.8619 12.8168C13.716 13.0885 13.6431 13.4067 13.6431 13.7713H12.1765C12.1765 13.1515 12.319 12.6096 12.604 12.1456C12.8891 11.6816 13.2802 11.322 13.7773 11.0668C14.2745 10.8082 14.8396 10.679 15.4727 10.679C16.1123 10.679 16.6758 10.8066 17.163 11.0618C17.6535 11.3137 18.0363 11.6584 18.3114 12.0959C18.5865 12.5301 18.7241 13.0206 18.7241 13.5675C18.7241 13.9453 18.6528 14.3149 18.5103 14.6761C18.3711 15.0374 18.1275 15.4401 17.7795 15.8842C17.4315 16.325 16.9476 16.8603 16.3278 17.4901L14.3043 19.608V19.6825H18.8881V21H12.1864Z" fill="#8859CF"/>
</svg>
