<svg width="32" height="32" viewBox="0 0 32 32" fill="none" xmlns="http://www.w3.org/2000/svg">
<circle cx="16" cy="16" r="15.25" transform="matrix(-1 0 0 1 32 0)" stroke="#8859CF" stroke-width="1.5"/>
<path d="M15.0124 21.1392C14.3297 21.1392 13.7198 21.0215 13.1829 20.7862C12.6493 20.5509 12.2267 20.2244 11.9151 19.8068C11.6069 19.3859 11.4412 18.8987 11.418 18.3452H12.979C12.9989 18.6468 13.1 18.9086 13.2823 19.1307C13.4679 19.3494 13.7099 19.5185 14.0082 19.6378C14.3065 19.7571 14.6379 19.8168 15.0025 19.8168C15.4035 19.8168 15.7582 19.7472 16.0664 19.608C16.378 19.4687 16.6216 19.2749 16.7972 19.0263C16.9729 18.7744 17.0607 18.4844 17.0607 18.1562C17.0607 17.8149 16.9729 17.5149 16.7972 17.2564C16.6249 16.9946 16.3713 16.7891 16.0366 16.6399C15.7051 16.4908 15.3041 16.4162 14.8335 16.4162H13.9734V15.1634H14.8335C15.2113 15.1634 15.5427 15.0954 15.8278 14.9595C16.1161 14.8236 16.3415 14.6347 16.5039 14.3928C16.6663 14.1475 16.7475 13.8608 16.7475 13.5327C16.7475 13.2178 16.6763 12.9444 16.5337 12.7124C16.3945 12.477 16.1957 12.2931 15.9371 12.1605C15.6819 12.0279 15.3803 11.9616 15.0323 11.9616C14.7009 11.9616 14.391 12.023 14.1026 12.1456C13.8176 12.2649 13.5856 12.4373 13.4066 12.6626C13.2276 12.8847 13.1315 13.1515 13.1183 13.4631H11.6317C11.6483 12.9129 11.8107 12.429 12.119 12.0114C12.4305 11.5937 12.8415 11.2673 13.3519 11.032C13.8623 10.7966 14.4291 10.679 15.0522 10.679C15.7051 10.679 16.2686 10.8066 16.7425 11.0618C17.2198 11.3137 17.5877 11.6501 17.8462 12.071C18.1081 12.492 18.2373 12.9527 18.234 13.4531C18.2373 14.0232 18.0782 14.5071 17.7567 14.9048C17.4386 15.3026 17.0143 15.5694 16.484 15.7053V15.7848C17.1602 15.8875 17.6838 16.156 18.055 16.5902C18.4296 17.0244 18.6152 17.563 18.6119 18.206C18.6152 18.7661 18.4594 19.2682 18.1445 19.7124C17.833 20.1565 17.4071 20.5062 16.8668 20.7614C16.3266 21.0133 15.7085 21.1392 15.0124 21.1392Z" fill="#8859CF"/>
</svg>
