<svg width="70" height="70" viewBox="0 0 70 70" fill="none" xmlns="http://www.w3.org/2000/svg">
<path d="M43.5 38H26.5C25.67 38 25 38.67 25 39.5C25 40.33 25.67 41 26.5 41H43.5C44.33 41 45 40.33 45 39.5C45 38.67 44.33 38 43.5 38ZM32.5 45H26.5C25.67 45 25 45.67 25 46.5C25 47.33 25.67 48 26.5 48H32.5C33.33 48 34 47.33 34 46.5C34 45.67 33.33 45 32.5 45ZM56.5 33C57.33 33 58 32.33 58 31.5V12.5C58 11.67 57.33 11 56.5 11H52.9C52.69 10.42 52.15 10 51.5 10H46V8H41.6C40.7 5.67 38.32 4 35.5 4C32.67 4 30.29 5.68 29.4 8H25V10H18.5C17.85 10 17.31 10.42 17.1 11H13.5C12.67 11 12 11.67 12 12.5V62.5C12 63.33 12.67 64 13.5 64H56.5C57.33 64 58 63.33 58 62.5V36.5C58 35.67 57.33 35 56.5 35C55.67 35 55 35.67 55 36.5V61H15V14H17V57.5C17 58.33 17.67 59 18.5 59H51.5C52.33 59 53 58.33 53 57.5V14H55V31.5C55 32.33 55.67 33 56.5 33ZM28 11H32.21C32.08 10.68 32 10.35 32 10C32 8.34 33.57 7 35.5 7C37.43 7 39 8.34 39 10C39 10.35 38.92 10.69 38.79 11H43V13H28V11ZM50 14V17V56H20V17V14V13H25V16H46V14V13H50V14ZM43.5 31H26.5C25.67 31 25 31.67 25 32.5C25 33.33 25.67 34 26.5 34H43.5C44.33 34 45 33.33 45 32.5C45 31.67 44.33 31 43.5 31ZM43.5 24H26.5C25.67 24 25 24.67 25 25.5C25 26.33 25.67 27 26.5 27H43.5C44.33 27 45 26.33 45 25.5C45 24.67 44.33 24 43.5 24Z" fill="#8859CF"/>
</svg>
