<svg width="70" height="70" viewBox="0 0 70 70" fill="none" xmlns="http://www.w3.org/2000/svg">
<path d="M58 14H51V11C51 9.35 49.65 8 48 8H45C43.35 8 42 9.35 42 11V14H30V11C30 9.35 28.65 8 27 8H24C22.35 8 21 9.35 21 11V14H14C11.24 14 9 16.24 9 19V58C9 60.76 11.24 63 14 63H58C60.76 63 63 60.76 63 58V19C63 16.24 60.76 14 58 14ZM60 58C60 59.65 59.65 60 58 60H14C12.35 60 12 59.65 12 58V29H60V58ZM60 26H12V19C12 17.35 12.35 17 14 17H21V19C21 20.65 22.35 22 24 22H27C27.55 22 28 20.55 28 20C28 19.45 27.55 19 27 19H25C24.45 19 24 18.55 24 18V12C24 11.45 24.45 11 25 11H26C26.55 11 27 11.45 27 12V14C26.45 14 26 14.45 26 15C26 15.55 26.45 17 27 17H42V19C42 20.65 43.35 22 45 22H50C50.55 22 51 20.55 51 20C51 19.45 50.55 19 50 19H46C45.45 19 45 18.55 45 18V12C45 11.45 45.45 11 46 11H47C47.55 11 48 11.45 48 12V14C47.45 14 47 14.45 47 15C47 15.55 47.45 17 48 17H58C59.65 17 60 17.35 60 19V26Z" fill="#8859CF"/>
<path d="M43.9174 53.2858C42.4267 53.2858 41.1701 53.0431 40.1474 52.5578C39.1247 52.0551 38.3447 51.4051 37.8074 50.6078C37.2874 49.8105 37.0101 48.9611 36.9754 48.0598C36.9581 47.9038 37.0014 47.7825 37.1054 47.6958C37.2267 47.5918 37.3654 47.5398 37.5214 47.5398H39.9394C40.1301 47.5398 40.2861 47.5831 40.4074 47.6698C40.5461 47.7391 40.6501 47.8691 40.7194 48.0598C40.8927 48.5798 41.1354 49.0045 41.4474 49.3338C41.7767 49.6631 42.1494 49.9058 42.5654 50.0618C42.9987 50.2178 43.4494 50.2958 43.9174 50.2958C44.5414 50.2958 45.1047 50.1745 45.6074 49.9318C46.1274 49.6718 46.5434 49.2905 46.8554 48.7878C47.1674 48.2851 47.3234 47.6698 47.3234 46.9418C47.3234 46.3005 47.1761 45.7458 46.8814 45.2778C46.5867 44.8098 46.1794 44.4458 45.6594 44.1858C45.1567 43.9085 44.5761 43.7698 43.9174 43.7698C43.4321 43.7698 43.0334 43.8305 42.7214 43.9518C42.4094 44.0731 42.1407 44.2118 41.9154 44.3678C41.7074 44.5238 41.5167 44.6625 41.3434 44.7838C41.1874 44.9051 41.0054 44.9658 40.7974 44.9658H38.4054C38.2494 44.9658 38.1107 44.9138 37.9894 44.8098C37.8854 44.6885 37.8334 44.5498 37.8334 44.3938L38.7434 35.5018C38.7607 35.2765 38.8387 35.1031 38.9774 34.9818C39.1161 34.8605 39.2807 34.7998 39.4714 34.7998H49.2474C49.4207 34.7998 49.5681 34.8605 49.6894 34.9818C49.8107 35.1031 49.8714 35.2505 49.8714 35.4238V37.1658C49.8714 37.3391 49.8107 37.4865 49.6894 37.6078C49.5681 37.7291 49.4207 37.7898 49.2474 37.7898H41.7334L41.3174 42.0278C41.6294 41.8198 42.0454 41.6205 42.5654 41.4298C43.0854 41.2391 43.8047 41.1438 44.7234 41.1438C45.5554 41.1438 46.3441 41.2825 47.0894 41.5598C47.8521 41.8198 48.5281 42.2098 49.1174 42.7298C49.7067 43.2325 50.1661 43.8478 50.4954 44.5758C50.8421 45.2865 51.0154 46.1011 51.0154 47.0198C51.0154 48.2851 50.7207 49.3858 50.1314 50.3218C49.5421 51.2578 48.7187 51.9858 47.6614 52.5058C46.6041 53.0258 45.3561 53.2858 43.9174 53.2858Z" fill="#8859CF"/>
<path d="M29.2703 52.9998C29.0969 52.9998 28.9496 52.9391 28.8283 52.8178C28.7069 52.6965 28.6463 52.5491 28.6463 52.3758V49.0478H20.4043C20.2136 49.0478 20.0576 48.9871 19.9363 48.8658C19.8323 48.7445 19.7803 48.5971 19.7803 48.4238V46.6558C19.7803 46.5518 19.7976 46.4305 19.8323 46.2918C19.8843 46.1358 19.9623 45.9971 20.0663 45.8758L27.7363 35.2418C27.9616 34.9471 28.2823 34.7998 28.6983 34.7998H31.5323C31.7056 34.7998 31.8529 34.8605 31.9743 34.9818C32.0956 35.1031 32.1563 35.2505 32.1563 35.4238V45.9798H34.4703C34.6783 45.9798 34.8343 46.0405 34.9383 46.1618C35.0596 46.2658 35.1203 46.4131 35.1203 46.6038V48.4238C35.1203 48.5971 35.0596 48.7445 34.9383 48.8658C34.8169 48.9871 34.6696 49.0478 34.4963 49.0478H32.1563V52.3758C32.1563 52.5491 32.0956 52.6965 31.9743 52.8178C31.8529 52.9391 31.7056 52.9998 31.5323 52.9998H29.2703ZM23.3943 46.0838H28.7243V38.5698L23.3943 46.0838Z" fill="#8859CF"/>
</svg>
