<svg width="70" height="70" viewBox="0 0 70 70" fill="none" xmlns="http://www.w3.org/2000/svg">
<path d="M51.89 43.2498C51.89 37.0398 46.76 31.9998 40.44 31.9998C34.12 31.9998 29 37.0398 29 43.2498C29 49.4598 34.13 54.4998 40.45 54.4998C43.42 54.4998 46.11 53.3798 48.15 51.5598L55.71 58.9898L58 56.7398L50.22 49.0998C51.27 47.3898 51.89 45.3898 51.89 43.2498ZM40.45 51.4998C35.81 51.4998 32.06 47.8098 32.06 43.2498C32.06 38.6898 35.82 34.9998 40.45 34.9998C45.08 34.9998 48.84 38.6898 48.84 43.2498C48.84 47.8098 45.08 51.4998 40.45 51.4998ZM63.23 33.2098L36.44 10.3598C36.42 10.3398 36.39 10.3398 36.37 10.3198C36.25 10.2298 36.13 10.1698 36 10.1198C35.93 10.0998 35.87 10.0798 35.8 10.0598C35.7 10.0398 35.6 10.0298 35.49 10.0298C35.38 10.0298 35.29 10.0398 35.18 10.0598C35.11 10.0698 35.05 10.0898 34.98 10.1198C34.85 10.1698 34.73 10.2298 34.61 10.3198C34.59 10.3398 34.56 10.3398 34.54 10.3598L24 19.3698V17.4998C24 16.6698 23.33 15.9998 22.5 15.9998H15.5C14.67 15.9998 14 16.6698 14 17.4998C14 17.6798 14.04 17.8398 14.1 17.9998C14.04 18.1598 14 18.3198 14 18.4998V27.4998C14 27.6198 14.04 27.7298 14.07 27.8398L7.78 33.2098C7.32 33.4698 7 33.9398 7 34.4998C7 34.6198 7.04 34.7198 7.07 34.8298C7.08 34.8798 7.08 34.9398 7.1 34.9898C7.15 35.1198 7.22 35.2298 7.29 35.3398C7.32 35.3798 7.33 35.4198 7.36 35.4598C7.37 35.4698 7.38 35.4698 7.39 35.4898C7.49 35.5998 7.6 35.6798 7.73 35.7598C7.77 35.7798 7.8 35.8198 7.84 35.8398C7.97 35.9098 8.12 35.9398 8.27 35.9598C8.31 35.9698 8.34 35.9798 8.38 35.9798C8.42 35.9798 8.46 35.9998 8.5 35.9998H13V54.9998C13 58.3098 15.69 60.9998 19 60.9998H32.5H49.5C50.33 60.9998 51 60.3298 51 59.4998C51 58.6698 50.33 57.9998 49.5 57.9998H35H19C17.34 57.9998 16 56.6598 16 54.9998V34.9998H15.9C15.96 34.8398 16 34.6798 16 34.4998C16 33.6698 15.33 32.9998 14.5 32.9998H12.53L35.5 13.4098L58.47 32.9998H56.5C55.67 32.9998 55 33.6698 55 34.4998C55 34.6798 55.04 34.8398 55.1 34.9998H55V48.9998V49.4998C55 50.3298 55.67 50.9998 56.5 50.9998C57.33 50.9998 58 50.3298 58 49.4998V36.4998C58 36.4998 58 36.4998 58 36.4898V35.9998H62.5C62.54 35.9998 62.58 35.9798 62.62 35.9798C62.66 35.9798 62.69 35.9598 62.73 35.9598C62.88 35.9398 63.03 35.8998 63.16 35.8398C63.2 35.8198 63.23 35.7898 63.27 35.7598C63.39 35.6798 63.51 35.5998 63.61 35.4898C63.62 35.4798 63.63 35.4798 63.64 35.4598C63.67 35.4198 63.68 35.3798 63.71 35.3398C63.79 35.2298 63.86 35.1198 63.9 34.9898C63.92 34.9398 63.92 34.8898 63.93 34.8298C63.96 34.7198 64 34.6198 64 34.4998C64 33.9398 63.68 33.4698 63.23 33.2098ZM17 25.3398V18.9998H21V21.4998C21 21.6298 21.04 21.7498 21.07 21.8698L17 25.3398Z" fill="#8859CF"/>
</svg>
