<svg width="70" height="70" viewBox="0 0 70 70" fill="none" xmlns="http://www.w3.org/2000/svg">
<g clip-path="url(#clip0_707_300)">
<path d="M58.8629 8H57.8686C55.7143 8 52.9179 10.9472 52.6589 13.1887H48.4229C48.1743 10.9472 45.4918 8 43.3375 8H42.3432C40.1889 8 37.3925 10.9472 37.1336 13.1887H32.8975C32.6489 10.9472 29.9664 8 27.8121 8H26.8179C24.6636 8 21.8671 10.9472 21.6082 13.1887H17.3721C17.1236 10.9472 14.4411 8 12.2868 8H11.2925C9.00357 8 6 11.2481 6 13.5208V57.8528C6 60.1255 9.00357 63 11.2614 63H12.2557C14.5239 63 17.3929 60.1255 17.3929 57.8632V57.8113H21.5357V57.8632C21.5357 60.1358 24.5393 63 26.7971 63H27.7914C30.0596 63 32.9286 60.1255 32.9286 57.8632V57.8113H37.0714V57.8632C37.0714 60.1358 40.075 63 42.3329 63H43.3271C45.5954 63 48.4643 60.1255 48.4643 57.8632V57.8113H52.6071V57.8632C52.6071 60.1358 55.6107 63 57.8686 63H58.8629C61.1311 63 64 60.1255 64 57.8632V13.5208C64 11.2481 61.1311 8 58.8629 8ZM14.2857 57.8528C14.2857 58.9736 13.3743 59.8868 12.2557 59.8868H11.2614C10.1429 59.8868 9.10714 58.9736 9.10714 57.8528V13.5208C9.10714 12.4 10.1429 11.1132 11.2614 11.1132H12.2557C13.3743 11.1132 14.2857 12.4 14.2857 13.5208V57.8528ZM21.5357 54.6981H17.3929V51.5849H21.5357V54.6981ZM21.5357 48.4717H17.3929V22.5283H21.5357V48.4717ZM21.5357 19.4151H17.3929V16.3019H21.5357V19.4151ZM29.8214 57.8528C29.8214 58.9736 28.91 59.8868 27.7914 59.8868H26.7971C25.6786 59.8868 24.6429 58.9736 24.6429 57.8528V13.5208C24.6429 12.4 25.6786 11.1132 26.7971 11.1132H27.7914C28.91 11.1132 29.8214 12.4 29.8214 13.5208V57.8528ZM37.0714 54.6981H32.9286V51.5849H37.0714V54.6981ZM37.0714 48.4717H32.9286V22.5283H37.0714V48.4717ZM37.0714 19.4151H32.9286V16.3019H37.0714V19.4151ZM45.3571 57.8528C45.3571 58.9736 44.4457 59.8868 43.3271 59.8868H42.3329C41.2143 59.8868 40.1786 58.9736 40.1786 57.8528V13.5208C40.1786 12.4 41.2143 11.1132 42.3329 11.1132H43.3271C44.4457 11.1132 45.3571 12.4 45.3571 13.5208V57.8528ZM52.6071 54.6981H48.4643V51.5849H52.6071V54.6981ZM52.6071 48.4717H48.4643V22.5283H52.6071V48.4717ZM52.6071 19.4151H48.4643V16.3019H52.6071V19.4151ZM60.8929 57.8528C60.8929 58.9736 59.9814 59.8868 58.8629 59.8868H57.8686C56.75 59.8868 55.7143 58.9736 55.7143 57.8528V13.5208C55.7143 12.4 56.75 11.1132 57.8686 11.1132H58.8629C59.9814 11.1132 60.8929 12.4 60.8929 13.5208V57.8528Z" fill="#8859CF"/>
</g>
<defs>
<clipPath id="clip0_707_300">
<rect width="70" height="70" fill="white"/>
</clipPath>
</defs>
</svg>
