<svg width="70" height="70" viewBox="0 0 70 70" fill="none" xmlns="http://www.w3.org/2000/svg">
<path d="M63.5 57H59V39H63.5C64.33 39 65 38.33 65 37.5C65 36.67 64.33 36 63.5 36H58.5C58.48 36 58.47 36.01 58.45 36.01C57.76 34.81 56.48 34 55 34C53.39 34 52.02 34.95 51.38 36.32C51.13 36.13 50.84 36 50.5 36H47V30.86C48.72 30.41 50 28.86 50 27C50 24.79 48.21 23 46 23H40V21H42.5C43.33 21 44 20.33 44 19.5V16H51.5C53.99 16 56 13.99 56 11.5C56 9.01 53.99 7 51.5 7H17.5C15.01 7 13 9.01 13 11.5C13 13.99 15.01 16 17.5 16H25V19.5C25 20.33 25.67 21 26.5 21H29V23H23C20.79 23 19 24.79 19 27C19 28.86 20.28 30.41 22 30.86V36H18.5C18.48 36 18.47 36.01 18.45 36.01C17.76 34.81 16.48 34 15 34C13.52 34 12.24 34.81 11.55 36.01C11.53 36.01 11.52 36 11.5 36H6.5C5.67 36 5 36.67 5 37.5C5 38.33 5.67 39 6.5 39H11V57H6.5C5.67 57 5 57.67 5 58.5C5 59.33 5.67 60 6.5 60H11.14C11.59 61.72 13.14 63 15 63C16.86 63 18.41 61.72 18.86 60H51.14C51.59 61.72 53.14 63 55 63C56.86 63 58.41 61.72 58.86 60H63.5C64.33 60 65 59.33 65 58.5C65 57.67 64.33 57 63.5 57ZM16 59C16 59.55 15.55 60 15 60C14.45 60 14 59.55 14 59V38C14 37.45 14.45 37 15 37C15.55 37 16 37.45 16 38V59ZM17.5 13C16.67 13 16 12.33 16 11.5C16 10.67 16.67 10 17.5 10H51.5C52.33 10 53 10.67 53 11.5C53 12.33 52.33 13 51.5 13H17.5ZM28 18V16H41V18H28ZM37 21V23H32V21H37ZM23 26H46C46.55 26 47 26.45 47 27C47 27.55 46.55 28 46 28H23C22.45 28 22 27.55 22 27C22 26.45 22.45 26 23 26ZM51 57H19V39H23.5C24.33 39 25 38.33 25 37.5V31H44V37.5C44 38.33 44.67 39 45.5 39H50.5C50.68 39 50.84 38.96 51 38.9V57ZM56 59C56 59.55 55.55 60 55 60C54.45 60 54 59.55 54 59V38C54 37.45 54.45 37 55 37C55.55 37 56 37.45 56 38V59Z" fill="#8859CF"/>
</svg>
