<svg width="60" height="60" viewBox="0 0 60 60" fill="none" xmlns="http://www.w3.org/2000/svg">
<path d="M52 3H9C6.24 3 4 5.24 4 8V42C4 44.76 6.24 47 9 47H26V46.99C26.81 46.97 27.47 46.31 27.47 45.5C27.47 44.69 26.81 44.02 26 44.01V44H9C7.9 44 7 43.1 7 42V8C7 6.9 7.9 6 9 6H52C53.1 6 54 6.9 54 8V42C54 43.1 53.1 44 52 44C51.17 44 50.5 44.67 50.5 45.5C50.5 46.33 51.17 47 52 47C54.76 47 57 44.76 57 42V8C57 5.24 54.76 3 52 3ZM39 28C36.24 28 34 30.24 34 33C34 35.76 36.24 38 39 38C41.76 38 44 35.76 44 33C44 30.24 41.76 28 39 28ZM39 35C37.9 35 37 34.1 37 33C37 31.9 37.9 31 39 31C40.1 31 41 31.9 41 33C41 34.1 40.1 35 39 35ZM14.5 32C13.67 32 13 32.67 13 33.5C13 34.33 13.67 35 14.5 35H21.5C22.33 35 23 34.33 23 33.5C23 32.67 22.33 32 21.5 32H14.5ZM25 24.5C25 23.67 24.33 23 23.5 23H14.5C13.67 23 13 23.67 13 24.5C13 25.33 13.67 26 14.5 26H23.5C24.33 26 25 25.33 25 24.5ZM39 21C32.37 21 27 26.37 27 33C27 36.55 28.55 39.73 31 41.93V56.5C31 56.69 31.04 56.89 31.11 57.07C31.34 57.61 31.87 58 32.5 58C33.02 58 33.46 57.72 33.73 57.31L39 51.04L44.27 57.31C44.54 57.72 44.98 58 45.5 58C46.13 58 46.66 57.61 46.89 57.07C46.96 56.89 47 56.7 47 56.5V41.93C49.45 39.73 51 36.55 51 33C51 26.37 45.63 21 39 21ZM44 52.9L40.53 48.43C40.12 48.02 39.52 47.91 39 48.1C38.48 47.91 37.88 48.02 37.47 48.43L34 52.9V43.9C35.52 44.6 37.21 45 39 45C40.79 45 42.48 44.6 44 43.9V52.9ZM39 42C34.03 42 30 37.97 30 33C30 28.03 34.03 24 39 24C43.97 24 48 28.03 48 33C48 37.97 43.97 42 39 42ZM47 15.5C47 14.67 46.33 14 45.5 14H14.5C13.67 14 13 14.67 13 15.5C13 16.33 13.67 17 14.5 17H45.5C46.33 17 47 16.33 47 15.5Z" fill="#8859CF"/>
</svg>
