<svg width="60" height="60" viewBox="0 0 60 60" fill="none" xmlns="http://www.w3.org/2000/svg">
<path d="M27.2944 25.8941L6 39.4785L9.30431 44.6185L30.2316 29.1984M23.9901 20.387L33.903 34.3385M36.1059 11.9426L46.0188 25.8941" stroke="#8859CF" stroke-width="3" stroke-linecap="round" stroke-linejoin="round"/>
<rect x="18.2452" y="17.7795" width="21.2316" height="4.27978" rx="2.13989" transform="rotate(-34.8257 18.2452 17.7795)" stroke="#8859CF" stroke-width="3"/>
<rect x="31.585" y="37.1699" width="21.2316" height="4.20799" rx="2.104" transform="rotate(-34.8257 31.585 37.1699)" stroke="#8859CF" stroke-width="3"/>
<path d="M27.582 50C27.582 48.067 29.149 46.5 31.082 46.5H44.082C46.015 46.5 47.582 48.067 47.582 50V50.5H27.582V50Z" stroke="#8859CF" stroke-width="3"/>
<path d="M23.6543 54.0242C23.6543 52.0912 25.2213 50.5242 27.1543 50.5242H47.2602C49.1932 50.5242 50.7602 52.0912 50.7602 54.0242V54.4999H23.6543V54.0242Z" stroke="#8859CF" stroke-width="3"/>
</svg>
